<mxfile host="Electron" agent="Mozilla/5.0 (X11; Linux x86_64) AppleWebKit/537.36 (KHTML, like Gecko) draw.io/24.7.17 Chrome/128.0.6613.36 Electron/32.0.1 Safari/537.36" version="24.7.17">
  <diagram name="Page-1" id="8u7e0zY_blUvBscZtFUk">
    <mxGraphModel dx="2049" dy="1243" grid="1" gridSize="10" guides="1" tooltips="1" connect="1" arrows="1" fold="1" page="1" pageScale="1" pageWidth="850" pageHeight="1100" math="0" shadow="0">
      <root>
        <mxCell id="0" />
        <mxCell id="1" parent="0" />
        <mxCell id="OHBltOvMj3yplkKkjRe--42" value="" style="rounded=0;whiteSpace=wrap;html=1;" vertex="1" parent="1">
          <mxGeometry x="920" y="40" width="720" height="840" as="geometry" />
        </mxCell>
        <mxCell id="OHBltOvMj3yplkKkjRe--35" value="" style="shape=flexArrow;endArrow=classic;startArrow=classic;html=1;rounded=0;" edge="1" parent="1">
          <mxGeometry width="100" height="100" relative="1" as="geometry">
            <mxPoint x="435" y="555" as="sourcePoint" />
            <mxPoint x="435" y="475" as="targetPoint" />
          </mxGeometry>
        </mxCell>
        <mxCell id="OHBltOvMj3yplkKkjRe--37" value="" style="group" vertex="1" connectable="0" parent="1">
          <mxGeometry x="195" y="555" width="460" height="270" as="geometry" />
        </mxCell>
        <mxCell id="OHBltOvMj3yplkKkjRe--18" value="" style="rounded=0;whiteSpace=wrap;html=1;" vertex="1" parent="OHBltOvMj3yplkKkjRe--37">
          <mxGeometry width="460" height="270" as="geometry" />
        </mxCell>
        <mxCell id="OHBltOvMj3yplkKkjRe--19" value="" style="group" vertex="1" connectable="0" parent="OHBltOvMj3yplkKkjRe--37">
          <mxGeometry x="20" y="20" width="430" height="240" as="geometry" />
        </mxCell>
        <mxCell id="7PiEhyULykOHt1mqIxHx-28" style="edgeStyle=orthogonalEdgeStyle;rounded=0;orthogonalLoop=1;jettySize=auto;html=1;exitX=0.75;exitY=0;exitDx=0;exitDy=0;entryX=0.75;entryY=1;entryDx=0;entryDy=0;" parent="OHBltOvMj3yplkKkjRe--19" source="7PiEhyULykOHt1mqIxHx-21" target="7PiEhyULykOHt1mqIxHx-23" edge="1">
          <mxGeometry relative="1" as="geometry" />
        </mxCell>
        <mxCell id="7PiEhyULykOHt1mqIxHx-21" value="MODEL" style="rounded=1;whiteSpace=wrap;html=1;fillColor=#a20025;strokeColor=#6F0000;fontColor=#ffffff;" parent="OHBltOvMj3yplkKkjRe--19" vertex="1">
          <mxGeometry x="160" y="160" width="120" height="40" as="geometry" />
        </mxCell>
        <mxCell id="7PiEhyULykOHt1mqIxHx-29" style="edgeStyle=orthogonalEdgeStyle;rounded=0;orthogonalLoop=1;jettySize=auto;html=1;exitX=0.25;exitY=1;exitDx=0;exitDy=0;entryX=0.25;entryY=0;entryDx=0;entryDy=0;" parent="OHBltOvMj3yplkKkjRe--19" source="7PiEhyULykOHt1mqIxHx-22" target="7PiEhyULykOHt1mqIxHx-23" edge="1">
          <mxGeometry relative="1" as="geometry" />
        </mxCell>
        <mxCell id="7PiEhyULykOHt1mqIxHx-22" value="CONTROLLER" style="rounded=1;whiteSpace=wrap;html=1;fillColor=#f0a30a;fontColor=#000000;strokeColor=#BD7000;" parent="OHBltOvMj3yplkKkjRe--19" vertex="1">
          <mxGeometry x="160" width="120" height="40" as="geometry" />
        </mxCell>
        <mxCell id="7PiEhyULykOHt1mqIxHx-27" style="edgeStyle=orthogonalEdgeStyle;rounded=0;orthogonalLoop=1;jettySize=auto;html=1;exitX=0.25;exitY=1;exitDx=0;exitDy=0;entryX=0.25;entryY=0;entryDx=0;entryDy=0;" parent="OHBltOvMj3yplkKkjRe--19" source="7PiEhyULykOHt1mqIxHx-23" target="7PiEhyULykOHt1mqIxHx-21" edge="1">
          <mxGeometry relative="1" as="geometry" />
        </mxCell>
        <mxCell id="7PiEhyULykOHt1mqIxHx-30" style="edgeStyle=orthogonalEdgeStyle;rounded=0;orthogonalLoop=1;jettySize=auto;html=1;exitX=0.75;exitY=0;exitDx=0;exitDy=0;entryX=0.75;entryY=1;entryDx=0;entryDy=0;" parent="OHBltOvMj3yplkKkjRe--19" source="7PiEhyULykOHt1mqIxHx-23" target="7PiEhyULykOHt1mqIxHx-22" edge="1">
          <mxGeometry relative="1" as="geometry" />
        </mxCell>
        <mxCell id="7PiEhyULykOHt1mqIxHx-23" value="SERVICE" style="rounded=1;whiteSpace=wrap;html=1;fillColor=#6d8764;strokeColor=#3A5431;fontColor=#ffffff;" parent="OHBltOvMj3yplkKkjRe--19" vertex="1">
          <mxGeometry x="160" y="80" width="120" height="40" as="geometry" />
        </mxCell>
        <mxCell id="7PiEhyULykOHt1mqIxHx-24" value="DB" style="shape=cylinder3;whiteSpace=wrap;html=1;boundedLbl=1;backgroundOutline=1;size=15;fillColor=#0050ef;fontColor=#ffffff;strokeColor=#001DBC;" parent="OHBltOvMj3yplkKkjRe--19" vertex="1">
          <mxGeometry y="120" width="80" height="120" as="geometry" />
        </mxCell>
        <mxCell id="OHBltOvMj3yplkKkjRe--1" style="edgeStyle=orthogonalEdgeStyle;rounded=0;orthogonalLoop=1;jettySize=auto;html=1;exitX=0;exitY=0.25;exitDx=0;exitDy=0;entryX=1.006;entryY=0.414;entryDx=0;entryDy=0;entryPerimeter=0;" edge="1" parent="OHBltOvMj3yplkKkjRe--19" source="7PiEhyULykOHt1mqIxHx-21" target="7PiEhyULykOHt1mqIxHx-24">
          <mxGeometry relative="1" as="geometry" />
        </mxCell>
        <mxCell id="OHBltOvMj3yplkKkjRe--2" style="edgeStyle=orthogonalEdgeStyle;rounded=0;orthogonalLoop=1;jettySize=auto;html=1;exitX=0;exitY=0.75;exitDx=0;exitDy=0;entryX=1.006;entryY=0.58;entryDx=0;entryDy=0;entryPerimeter=0;startArrow=classic;startFill=1;endArrow=none;endFill=0;" edge="1" parent="OHBltOvMj3yplkKkjRe--19" source="7PiEhyULykOHt1mqIxHx-21" target="7PiEhyULykOHt1mqIxHx-24">
          <mxGeometry relative="1" as="geometry" />
        </mxCell>
        <mxCell id="OHBltOvMj3yplkKkjRe--10" value="Controls the data access" style="text;html=1;align=center;verticalAlign=middle;whiteSpace=wrap;rounded=0;" vertex="1" parent="OHBltOvMj3yplkKkjRe--19">
          <mxGeometry x="290" y="180" width="95" height="40" as="geometry" />
        </mxCell>
        <mxCell id="OHBltOvMj3yplkKkjRe--11" value="Implements businnes logic, providing required data manipulation&amp;nbsp;" style="text;html=1;align=center;verticalAlign=middle;whiteSpace=wrap;rounded=0;" vertex="1" parent="OHBltOvMj3yplkKkjRe--19">
          <mxGeometry x="290" y="90" width="140" height="40" as="geometry" />
        </mxCell>
        <mxCell id="OHBltOvMj3yplkKkjRe--12" value="Entry point, where endpoints and calls patterns are defined" style="text;html=1;align=center;verticalAlign=middle;whiteSpace=wrap;rounded=0;" vertex="1" parent="OHBltOvMj3yplkKkjRe--19">
          <mxGeometry x="280" y="20" width="140" height="40" as="geometry" />
        </mxCell>
        <mxCell id="OHBltOvMj3yplkKkjRe--20" value="Backend" style="text;html=1;align=center;verticalAlign=middle;whiteSpace=wrap;rounded=0;fontStyle=1" vertex="1" parent="OHBltOvMj3yplkKkjRe--37">
          <mxGeometry width="60" height="20" as="geometry" />
        </mxCell>
        <mxCell id="OHBltOvMj3yplkKkjRe--38" value="" style="group" vertex="1" connectable="0" parent="1">
          <mxGeometry x="355" y="275" width="300" height="200" as="geometry" />
        </mxCell>
        <mxCell id="OHBltOvMj3yplkKkjRe--21" value="" style="rounded=0;whiteSpace=wrap;html=1;" vertex="1" parent="OHBltOvMj3yplkKkjRe--38">
          <mxGeometry y="10" width="300" height="190" as="geometry" />
        </mxCell>
        <mxCell id="OHBltOvMj3yplkKkjRe--22" value="Frontend" style="text;html=1;align=center;verticalAlign=middle;whiteSpace=wrap;rounded=0;fontStyle=1" vertex="1" parent="OHBltOvMj3yplkKkjRe--38">
          <mxGeometry y="10" width="60" height="20" as="geometry" />
        </mxCell>
        <mxCell id="OHBltOvMj3yplkKkjRe--34" value="" style="group" vertex="1" connectable="0" parent="OHBltOvMj3yplkKkjRe--38">
          <mxGeometry y="40" width="290" height="155" as="geometry" />
        </mxCell>
        <mxCell id="OHBltOvMj3yplkKkjRe--23" value="Templates&lt;div&gt;HTML&lt;/div&gt;" style="shape=note;whiteSpace=wrap;html=1;backgroundOutline=1;darkOpacity=0.05;size=18;fillColor=#6d8764;fontColor=#ffffff;strokeColor=#3A5431;" vertex="1" parent="OHBltOvMj3yplkKkjRe--34">
          <mxGeometry x="210" width="60" height="80" as="geometry" />
        </mxCell>
        <mxCell id="OHBltOvMj3yplkKkjRe--31" style="edgeStyle=orthogonalEdgeStyle;rounded=0;orthogonalLoop=1;jettySize=auto;html=1;exitX=0.75;exitY=0;exitDx=0;exitDy=0;entryX=0.75;entryY=1;entryDx=0;entryDy=0;" edge="1" parent="OHBltOvMj3yplkKkjRe--34" source="OHBltOvMj3yplkKkjRe--25" target="OHBltOvMj3yplkKkjRe--26">
          <mxGeometry relative="1" as="geometry" />
        </mxCell>
        <mxCell id="OHBltOvMj3yplkKkjRe--25" value="API Interface" style="rounded=0;whiteSpace=wrap;html=1;fillColor=#a20025;fontColor=#ffffff;strokeColor=#6F0000;" vertex="1" parent="OHBltOvMj3yplkKkjRe--34">
          <mxGeometry x="10" y="120" width="150" height="30" as="geometry" />
        </mxCell>
        <mxCell id="OHBltOvMj3yplkKkjRe--30" style="edgeStyle=orthogonalEdgeStyle;rounded=0;orthogonalLoop=1;jettySize=auto;html=1;exitX=0.25;exitY=1;exitDx=0;exitDy=0;entryX=0.25;entryY=0;entryDx=0;entryDy=0;" edge="1" parent="OHBltOvMj3yplkKkjRe--34" source="OHBltOvMj3yplkKkjRe--26" target="OHBltOvMj3yplkKkjRe--25">
          <mxGeometry relative="1" as="geometry" />
        </mxCell>
        <mxCell id="OHBltOvMj3yplkKkjRe--26" value="VIEW" style="rounded=1;whiteSpace=wrap;html=1;fillColor=#f0a30a;fontColor=#000000;strokeColor=#BD7000;" vertex="1" parent="OHBltOvMj3yplkKkjRe--34">
          <mxGeometry x="10" y="20" width="150" height="40" as="geometry" />
        </mxCell>
        <mxCell id="OHBltOvMj3yplkKkjRe--28" style="edgeStyle=orthogonalEdgeStyle;rounded=0;orthogonalLoop=1;jettySize=auto;html=1;exitX=1;exitY=0.75;exitDx=0;exitDy=0;entryX=0.014;entryY=0.625;entryDx=0;entryDy=0;entryPerimeter=0;" edge="1" parent="OHBltOvMj3yplkKkjRe--34" source="OHBltOvMj3yplkKkjRe--26" target="OHBltOvMj3yplkKkjRe--23">
          <mxGeometry relative="1" as="geometry" />
        </mxCell>
        <mxCell id="OHBltOvMj3yplkKkjRe--29" style="edgeStyle=orthogonalEdgeStyle;rounded=0;orthogonalLoop=1;jettySize=auto;html=1;exitX=1;exitY=0.25;exitDx=0;exitDy=0;entryX=0;entryY=0.375;entryDx=0;entryDy=0;entryPerimeter=0;startArrow=classic;startFill=1;endArrow=none;endFill=0;" edge="1" parent="OHBltOvMj3yplkKkjRe--34" source="OHBltOvMj3yplkKkjRe--26" target="OHBltOvMj3yplkKkjRe--23">
          <mxGeometry relative="1" as="geometry" />
        </mxCell>
        <mxCell id="OHBltOvMj3yplkKkjRe--32" value="Prepare API calls and process responses" style="text;html=1;align=center;verticalAlign=middle;whiteSpace=wrap;rounded=0;" vertex="1" parent="OHBltOvMj3yplkKkjRe--34">
          <mxGeometry x="160" y="115" width="130" height="40" as="geometry" />
        </mxCell>
        <mxCell id="OHBltOvMj3yplkKkjRe--33" value="Website endpoints" style="text;html=1;align=center;verticalAlign=middle;whiteSpace=wrap;rounded=0;" vertex="1" parent="OHBltOvMj3yplkKkjRe--34">
          <mxGeometry width="110" height="20" as="geometry" />
        </mxCell>
        <mxCell id="OHBltOvMj3yplkKkjRe--43" value="" style="group" vertex="1" connectable="0" parent="1">
          <mxGeometry x="940" y="60" width="430" height="240" as="geometry" />
        </mxCell>
        <mxCell id="OHBltOvMj3yplkKkjRe--44" style="edgeStyle=orthogonalEdgeStyle;rounded=0;orthogonalLoop=1;jettySize=auto;html=1;exitX=0.75;exitY=0;exitDx=0;exitDy=0;entryX=0.75;entryY=1;entryDx=0;entryDy=0;" edge="1" parent="OHBltOvMj3yplkKkjRe--43" source="OHBltOvMj3yplkKkjRe--45" target="OHBltOvMj3yplkKkjRe--50">
          <mxGeometry relative="1" as="geometry" />
        </mxCell>
        <mxCell id="OHBltOvMj3yplkKkjRe--45" value="MODEL" style="rounded=1;whiteSpace=wrap;html=1;fillColor=#a20025;strokeColor=#6F0000;fontColor=#ffffff;" vertex="1" parent="OHBltOvMj3yplkKkjRe--43">
          <mxGeometry x="160" y="160" width="120" height="40" as="geometry" />
        </mxCell>
        <mxCell id="OHBltOvMj3yplkKkjRe--46" style="edgeStyle=orthogonalEdgeStyle;rounded=0;orthogonalLoop=1;jettySize=auto;html=1;exitX=0.25;exitY=1;exitDx=0;exitDy=0;entryX=0.25;entryY=0;entryDx=0;entryDy=0;" edge="1" parent="OHBltOvMj3yplkKkjRe--43" source="OHBltOvMj3yplkKkjRe--47" target="OHBltOvMj3yplkKkjRe--50">
          <mxGeometry relative="1" as="geometry" />
        </mxCell>
        <mxCell id="OHBltOvMj3yplkKkjRe--47" value="CONTROLLER" style="rounded=1;whiteSpace=wrap;html=1;fillColor=#f0a30a;fontColor=#000000;strokeColor=#BD7000;" vertex="1" parent="OHBltOvMj3yplkKkjRe--43">
          <mxGeometry x="160" width="120" height="40" as="geometry" />
        </mxCell>
        <mxCell id="OHBltOvMj3yplkKkjRe--48" style="edgeStyle=orthogonalEdgeStyle;rounded=0;orthogonalLoop=1;jettySize=auto;html=1;exitX=0.25;exitY=1;exitDx=0;exitDy=0;entryX=0.25;entryY=0;entryDx=0;entryDy=0;" edge="1" parent="OHBltOvMj3yplkKkjRe--43" source="OHBltOvMj3yplkKkjRe--50" target="OHBltOvMj3yplkKkjRe--45">
          <mxGeometry relative="1" as="geometry" />
        </mxCell>
        <mxCell id="OHBltOvMj3yplkKkjRe--49" style="edgeStyle=orthogonalEdgeStyle;rounded=0;orthogonalLoop=1;jettySize=auto;html=1;exitX=0.75;exitY=0;exitDx=0;exitDy=0;entryX=0.75;entryY=1;entryDx=0;entryDy=0;" edge="1" parent="OHBltOvMj3yplkKkjRe--43" source="OHBltOvMj3yplkKkjRe--50" target="OHBltOvMj3yplkKkjRe--47">
          <mxGeometry relative="1" as="geometry" />
        </mxCell>
        <mxCell id="OHBltOvMj3yplkKkjRe--50" value="SERVICE" style="rounded=1;whiteSpace=wrap;html=1;fillColor=#6d8764;strokeColor=#3A5431;fontColor=#ffffff;" vertex="1" parent="OHBltOvMj3yplkKkjRe--43">
          <mxGeometry x="160" y="80" width="120" height="40" as="geometry" />
        </mxCell>
        <mxCell id="OHBltOvMj3yplkKkjRe--51" value="DB" style="shape=cylinder3;whiteSpace=wrap;html=1;boundedLbl=1;backgroundOutline=1;size=15;fillColor=#0050ef;fontColor=#ffffff;strokeColor=#001DBC;" vertex="1" parent="OHBltOvMj3yplkKkjRe--43">
          <mxGeometry y="120" width="80" height="120" as="geometry" />
        </mxCell>
        <mxCell id="OHBltOvMj3yplkKkjRe--52" style="edgeStyle=orthogonalEdgeStyle;rounded=0;orthogonalLoop=1;jettySize=auto;html=1;exitX=0;exitY=0.25;exitDx=0;exitDy=0;entryX=1.006;entryY=0.414;entryDx=0;entryDy=0;entryPerimeter=0;" edge="1" parent="OHBltOvMj3yplkKkjRe--43" source="OHBltOvMj3yplkKkjRe--45" target="OHBltOvMj3yplkKkjRe--51">
          <mxGeometry relative="1" as="geometry" />
        </mxCell>
        <mxCell id="OHBltOvMj3yplkKkjRe--53" style="edgeStyle=orthogonalEdgeStyle;rounded=0;orthogonalLoop=1;jettySize=auto;html=1;exitX=0;exitY=0.75;exitDx=0;exitDy=0;entryX=1.006;entryY=0.58;entryDx=0;entryDy=0;entryPerimeter=0;startArrow=classic;startFill=1;endArrow=none;endFill=0;" edge="1" parent="OHBltOvMj3yplkKkjRe--43" source="OHBltOvMj3yplkKkjRe--45" target="OHBltOvMj3yplkKkjRe--51">
          <mxGeometry relative="1" as="geometry" />
        </mxCell>
        <mxCell id="OHBltOvMj3yplkKkjRe--54" value="Controls the data access" style="text;html=1;align=center;verticalAlign=middle;whiteSpace=wrap;rounded=0;" vertex="1" parent="OHBltOvMj3yplkKkjRe--43">
          <mxGeometry x="290" y="180" width="95" height="40" as="geometry" />
        </mxCell>
        <mxCell id="OHBltOvMj3yplkKkjRe--55" value="Implements businnes logic, providing required data manipulation&amp;nbsp;" style="text;html=1;align=center;verticalAlign=middle;whiteSpace=wrap;rounded=0;" vertex="1" parent="OHBltOvMj3yplkKkjRe--43">
          <mxGeometry x="290" y="90" width="140" height="40" as="geometry" />
        </mxCell>
        <mxCell id="OHBltOvMj3yplkKkjRe--56" value="Entry point, where endpoints and calls patterns are defined" style="text;html=1;align=center;verticalAlign=middle;whiteSpace=wrap;rounded=0;" vertex="1" parent="OHBltOvMj3yplkKkjRe--43">
          <mxGeometry x="280" y="20" width="140" height="40" as="geometry" />
        </mxCell>
        <mxCell id="OHBltOvMj3yplkKkjRe--57" value="Backend" style="text;html=1;align=center;verticalAlign=middle;whiteSpace=wrap;rounded=0;fontStyle=1;fontSize=16;" vertex="1" parent="1">
          <mxGeometry x="920" y="40" width="80" height="30" as="geometry" />
        </mxCell>
        <mxCell id="OHBltOvMj3yplkKkjRe--71" value="Add user" style="swimlane;fontStyle=1;align=center;verticalAlign=top;childLayout=stackLayout;horizontal=1;startSize=26;horizontalStack=0;resizeParent=1;resizeParentMax=0;resizeLast=0;collapsible=1;marginBottom=0;whiteSpace=wrap;html=1;" vertex="1" parent="1">
          <mxGeometry x="940" y="360" width="160" height="150" as="geometry" />
        </mxCell>
        <mxCell id="OHBltOvMj3yplkKkjRe--72" value="api/users/ [POST]&lt;div&gt;&lt;br&gt;&lt;/div&gt;" style="text;strokeColor=none;fillColor=none;align=left;verticalAlign=top;spacingLeft=4;spacingRight=4;overflow=hidden;rotatable=0;points=[[0,0.5],[1,0.5]];portConstraint=eastwest;whiteSpace=wrap;html=1;" vertex="1" parent="OHBltOvMj3yplkKkjRe--71">
          <mxGeometry y="26" width="160" height="26" as="geometry" />
        </mxCell>
        <mxCell id="OHBltOvMj3yplkKkjRe--73" value="" style="line;strokeWidth=1;fillColor=none;align=left;verticalAlign=middle;spacingTop=-1;spacingLeft=3;spacingRight=3;rotatable=0;labelPosition=right;points=[];portConstraint=eastwest;strokeColor=inherit;" vertex="1" parent="OHBltOvMj3yplkKkjRe--71">
          <mxGeometry y="52" width="160" height="8" as="geometry" />
        </mxCell>
        <UserObject label="&lt;div style=&quot;forced-color-adjust: none; border-color: rgb(0, 0, 0); color: rgb(248, 248, 242); font-family: IBMPlexMono, monospace, &amp;quot;Droid Sans Fallback&amp;quot;, &amp;quot;Droid Sans Mono&amp;quot;, &amp;quot;monospace&amp;quot;, monospace; font-size: 12px; font-style: normal; font-variant-ligatures: normal; font-variant-caps: normal; font-weight: 400; letter-spacing: normal; orphans: 2; text-align: left; text-indent: 0px; text-transform: none; widows: 2; word-spacing: 0px; -webkit-text-stroke-width: 0px; white-space: pre; text-decoration-thickness: initial; text-decoration-style: initial; text-decoration-color: initial;&quot;&gt;&lt;span style=&quot;forced-color-adjust: none; border-color: rgb(0, 0, 0); color: rgb(220, 220, 220);&quot;&gt;{&lt;/span&gt;&lt;/div&gt;&lt;div style=&quot;forced-color-adjust: none; border-color: rgb(0, 0, 0); color: rgb(248, 248, 242); font-family: IBMPlexMono, monospace, &amp;quot;Droid Sans Fallback&amp;quot;, &amp;quot;Droid Sans Mono&amp;quot;, &amp;quot;monospace&amp;quot;, monospace; font-size: 12px; font-style: normal; font-variant-ligatures: normal; font-variant-caps: normal; font-weight: 400; letter-spacing: normal; orphans: 2; text-align: left; text-indent: 0px; text-transform: none; widows: 2; word-spacing: 0px; -webkit-text-stroke-width: 0px; white-space: pre; text-decoration-thickness: initial; text-decoration-style: initial; text-decoration-color: initial;&quot;&gt;&lt;span style=&quot;forced-color-adjust: none; border-color: rgb(0, 0, 0); color: rgb(248, 248, 242);&quot;&gt;    &lt;/span&gt;&lt;span style=&quot;forced-color-adjust: none; border-color: rgb(0, 0, 0); color: rgb(156, 220, 254);&quot;&gt;&quot;username&quot;&lt;/span&gt;&lt;span style=&quot;forced-color-adjust: none; border-color: rgb(0, 0, 0); color: rgb(220, 220, 220);&quot;&gt;:&lt;/span&gt;&lt;span style=&quot;forced-color-adjust: none; border-color: rgb(0, 0, 0); color: rgb(248, 248, 242);&quot;&gt; &lt;/span&gt;&lt;span style=&quot;forced-color-adjust: none; border-color: rgb(0, 0, 0); color: rgb(206, 145, 120);&quot;&gt;&quot;&quot;&lt;/span&gt;&lt;span style=&quot;forced-color-adjust: none; border-color: rgb(0, 0, 0); color: rgb(220, 220, 220);&quot;&gt;,&lt;/span&gt;&lt;/div&gt;&lt;div style=&quot;forced-color-adjust: none; border-color: rgb(0, 0, 0); color: rgb(248, 248, 242); font-family: IBMPlexMono, monospace, &amp;quot;Droid Sans Fallback&amp;quot;, &amp;quot;Droid Sans Mono&amp;quot;, &amp;quot;monospace&amp;quot;, monospace; font-size: 12px; font-style: normal; font-variant-ligatures: normal; font-variant-caps: normal; font-weight: 400; letter-spacing: normal; orphans: 2; text-align: left; text-indent: 0px; text-transform: none; widows: 2; word-spacing: 0px; -webkit-text-stroke-width: 0px; white-space: pre; text-decoration-thickness: initial; text-decoration-style: initial; text-decoration-color: initial;&quot;&gt;&lt;span style=&quot;forced-color-adjust: none; border-color: rgb(0, 0, 0); color: rgb(248, 248, 242);&quot;&gt;    &lt;/span&gt;&lt;span style=&quot;forced-color-adjust: none; border-color: rgb(0, 0, 0); color: rgb(156, 220, 254);&quot;&gt;&quot;email&quot;&lt;/span&gt;&lt;span style=&quot;forced-color-adjust: none; border-color: rgb(0, 0, 0); color: rgb(220, 220, 220);&quot;&gt;:&lt;/span&gt;&lt;span style=&quot;forced-color-adjust: none; border-color: rgb(0, 0, 0); color: rgb(248, 248, 242);&quot;&gt; &lt;/span&gt;&lt;span style=&quot;forced-color-adjust: none; border-color: rgb(0, 0, 0); color: rgb(206, 145, 120);&quot;&gt;&quot;&quot;&lt;/span&gt;&lt;span style=&quot;forced-color-adjust: none; border-color: rgb(0, 0, 0); color: rgb(220, 220, 220);&quot;&gt;,&lt;/span&gt;&lt;/div&gt;&lt;div style=&quot;forced-color-adjust: none; border-color: rgb(0, 0, 0); color: rgb(248, 248, 242); font-family: IBMPlexMono, monospace, &amp;quot;Droid Sans Fallback&amp;quot;, &amp;quot;Droid Sans Mono&amp;quot;, &amp;quot;monospace&amp;quot;, monospace; font-size: 12px; font-style: normal; font-variant-ligatures: normal; font-variant-caps: normal; font-weight: 400; letter-spacing: normal; orphans: 2; text-align: left; text-indent: 0px; text-transform: none; widows: 2; word-spacing: 0px; -webkit-text-stroke-width: 0px; white-space: pre; text-decoration-thickness: initial; text-decoration-style: initial; text-decoration-color: initial;&quot;&gt;&lt;span style=&quot;forced-color-adjust: none; border-color: rgb(0, 0, 0); color: rgb(248, 248, 242);&quot;&gt;    &lt;/span&gt;&lt;span style=&quot;forced-color-adjust: none; border-color: rgb(0, 0, 0); color: rgb(156, 220, 254);&quot;&gt;&quot;password&quot;&lt;/span&gt;&lt;span style=&quot;forced-color-adjust: none; border-color: rgb(0, 0, 0); color: rgb(220, 220, 220);&quot;&gt;:&lt;/span&gt;&lt;span style=&quot;forced-color-adjust: none; border-color: rgb(0, 0, 0); color: rgb(248, 248, 242);&quot;&gt; &lt;/span&gt;&lt;span style=&quot;forced-color-adjust: none; border-color: rgb(0, 0, 0); color: rgb(206, 145, 120);&quot;&gt;&quot;&quot;&lt;/span&gt;&lt;/div&gt;&lt;div style=&quot;forced-color-adjust: none; border-color: rgb(0, 0, 0); color: rgb(248, 248, 242); font-family: IBMPlexMono, monospace, &amp;quot;Droid Sans Fallback&amp;quot;, &amp;quot;Droid Sans Mono&amp;quot;, &amp;quot;monospace&amp;quot;, monospace; font-size: 12px; font-style: normal; font-variant-ligatures: normal; font-variant-caps: normal; font-weight: 400; letter-spacing: normal; orphans: 2; text-align: left; text-indent: 0px; text-transform: none; widows: 2; word-spacing: 0px; -webkit-text-stroke-width: 0px; white-space: pre; text-decoration-thickness: initial; text-decoration-style: initial; text-decoration-color: initial;&quot;&gt;&lt;span style=&quot;forced-color-adjust: none; border-color: rgb(0, 0, 0); color: rgb(220, 220, 220);&quot;&gt;}&lt;/span&gt;&lt;/div&gt;" link="&lt;div style=&quot;forced-color-adjust: none; border-color: rgb(0, 0, 0); color: rgb(248, 248, 242); font-family: IBMPlexMono, monospace, &amp;quot;Droid Sans Fallback&amp;quot;, &amp;quot;Droid Sans Mono&amp;quot;, &amp;quot;monospace&amp;quot;, monospace; font-size: 12px; font-style: normal; font-variant-ligatures: normal; font-variant-caps: normal; font-weight: 400; letter-spacing: normal; orphans: 2; text-align: left; text-indent: 0px; text-transform: none; widows: 2; word-spacing: 0px; -webkit-text-stroke-width: 0px; white-space: pre; background-color: rgb(27, 29, 30); text-decoration-thickness: initial; text-decoration-style: initial; text-decoration-color: initial;&quot;&gt;&lt;span style=&quot;forced-color-adjust: none; border-color: rgb(0, 0, 0); color: rgb(220, 220, 220);&quot;&gt;{&lt;/span&gt;&lt;/div&gt;&lt;div style=&quot;forced-color-adjust: none; border-color: rgb(0, 0, 0); color: rgb(248, 248, 242); font-family: IBMPlexMono, monospace, &amp;quot;Droid Sans Fallback&amp;quot;, &amp;quot;Droid Sans Mono&amp;quot;, &amp;quot;monospace&amp;quot;, monospace; font-size: 12px; font-style: normal; font-variant-ligatures: normal; font-variant-caps: normal; font-weight: 400; letter-spacing: normal; orphans: 2; text-align: left; text-indent: 0px; text-transform: none; widows: 2; word-spacing: 0px; -webkit-text-stroke-width: 0px; white-space: pre; background-color: rgb(27, 29, 30); text-decoration-thickness: initial; text-decoration-style: initial; text-decoration-color: initial;&quot;&gt;&lt;span style=&quot;forced-color-adjust: none; border-color: rgb(0, 0, 0); color: rgb(248, 248, 242);&quot;&gt;    &lt;/span&gt;&lt;span style=&quot;forced-color-adjust: none; border-color: rgb(0, 0, 0); color: rgb(156, 220, 254);&quot;&gt;&quot;username&quot;&lt;/span&gt;&lt;span style=&quot;forced-color-adjust: none; border-color: rgb(0, 0, 0); color: rgb(220, 220, 220);&quot;&gt;:&lt;/span&gt;&lt;span style=&quot;forced-color-adjust: none; border-color: rgb(0, 0, 0); color: rgb(248, 248, 242);&quot;&gt; &lt;/span&gt;&lt;span style=&quot;forced-color-adjust: none; border-color: rgb(0, 0, 0); color: rgb(206, 145, 120);&quot;&gt;&quot;Jose&quot;&lt;/span&gt;&lt;span style=&quot;forced-color-adjust: none; border-color: rgb(0, 0, 0); color: rgb(220, 220, 220);&quot;&gt;,&lt;/span&gt;&lt;/div&gt;&lt;div style=&quot;forced-color-adjust: none; border-color: rgb(0, 0, 0); color: rgb(248, 248, 242); font-family: IBMPlexMono, monospace, &amp;quot;Droid Sans Fallback&amp;quot;, &amp;quot;Droid Sans Mono&amp;quot;, &amp;quot;monospace&amp;quot;, monospace; font-size: 12px; font-style: normal; font-variant-ligatures: normal; font-variant-caps: normal; font-weight: 400; letter-spacing: normal; orphans: 2; text-align: left; text-indent: 0px; text-transform: none; widows: 2; word-spacing: 0px; -webkit-text-stroke-width: 0px; white-space: pre; background-color: rgb(27, 29, 30); text-decoration-thickness: initial; text-decoration-style: initial; text-decoration-color: initial;&quot;&gt;&lt;span style=&quot;forced-color-adjust: none; border-color: rgb(0, 0, 0); color: rgb(248, 248, 242);&quot;&gt;    &lt;/span&gt;&lt;span style=&quot;forced-color-adjust: none; border-color: rgb(0, 0, 0); color: rgb(156, 220, 254);&quot;&gt;&quot;email&quot;&lt;/span&gt;&lt;span style=&quot;forced-color-adjust: none; border-color: rgb(0, 0, 0); color: rgb(220, 220, 220);&quot;&gt;:&lt;/span&gt;&lt;span style=&quot;forced-color-adjust: none; border-color: rgb(0, 0, 0); color: rgb(248, 248, 242);&quot;&gt; &lt;/span&gt;&lt;span style=&quot;forced-color-adjust: none; border-color: rgb(0, 0, 0); color: rgb(206, 145, 120);&quot;&gt;&quot;jose@example.com&quot;&lt;/span&gt;&lt;span style=&quot;forced-color-adjust: none; border-color: rgb(0, 0, 0); color: rgb(220, 220, 220);&quot;&gt;,&lt;/span&gt;&lt;/div&gt;&lt;div style=&quot;forced-color-adjust: none; border-color: rgb(0, 0, 0); color: rgb(248, 248, 242); font-family: IBMPlexMono, monospace, &amp;quot;Droid Sans Fallback&amp;quot;, &amp;quot;Droid Sans Mono&amp;quot;, &amp;quot;monospace&amp;quot;, monospace; font-size: 12px; font-style: normal; font-variant-ligatures: normal; font-variant-caps: normal; font-weight: 400; letter-spacing: normal; orphans: 2; text-align: left; text-indent: 0px; text-transform: none; widows: 2; word-spacing: 0px; -webkit-text-stroke-width: 0px; white-space: pre; background-color: rgb(27, 29, 30); text-decoration-thickness: initial; text-decoration-style: initial; text-decoration-color: initial;&quot;&gt;&lt;span style=&quot;forced-color-adjust: none; border-color: rgb(0, 0, 0); color: rgb(248, 248, 242);&quot;&gt;    &lt;/span&gt;&lt;span style=&quot;forced-color-adjust: none; border-color: rgb(0, 0, 0); color: rgb(156, 220, 254);&quot;&gt;&quot;password&quot;&lt;/span&gt;&lt;span style=&quot;forced-color-adjust: none; border-color: rgb(0, 0, 0); color: rgb(220, 220, 220);&quot;&gt;:&lt;/span&gt;&lt;span style=&quot;forced-color-adjust: none; border-color: rgb(0, 0, 0); color: rgb(248, 248, 242);&quot;&gt; &lt;/span&gt;&lt;span style=&quot;forced-color-adjust: none; border-color: rgb(0, 0, 0); color: rgb(206, 145, 120);&quot;&gt;&quot;strong_password&quot;&lt;/span&gt;&lt;/div&gt;&lt;div style=&quot;forced-color-adjust: none; border-color: rgb(0, 0, 0); color: rgb(248, 248, 242); font-family: IBMPlexMono, monospace, &amp;quot;Droid Sans Fallback&amp;quot;, &amp;quot;Droid Sans Mono&amp;quot;, &amp;quot;monospace&amp;quot;, monospace; font-size: 12px; font-style: normal; font-variant-ligatures: normal; font-variant-caps: normal; font-weight: 400; letter-spacing: normal; orphans: 2; text-align: left; text-indent: 0px; text-transform: none; widows: 2; word-spacing: 0px; -webkit-text-stroke-width: 0px; white-space: pre; background-color: rgb(27, 29, 30); text-decoration-thickness: initial; text-decoration-style: initial; text-decoration-color: initial;&quot;&gt;&lt;span style=&quot;forced-color-adjust: none; border-color: rgb(0, 0, 0); color: rgb(220, 220, 220);&quot;&gt;}&lt;/span&gt;&lt;/div&gt;" id="OHBltOvMj3yplkKkjRe--75">
          <mxCell style="text;whiteSpace=wrap;html=1;labelBackgroundColor=none;" vertex="1" parent="OHBltOvMj3yplkKkjRe--71">
            <mxGeometry y="60" width="160" height="90" as="geometry" />
          </mxCell>
        </UserObject>
        <mxCell id="OHBltOvMj3yplkKkjRe--76" value="Delete user" style="swimlane;fontStyle=1;align=center;verticalAlign=top;childLayout=stackLayout;horizontal=1;startSize=26;horizontalStack=0;resizeParent=1;resizeParentMax=0;resizeLast=0;collapsible=1;marginBottom=0;whiteSpace=wrap;html=1;" vertex="1" parent="1">
          <mxGeometry x="1110" y="360" width="160" height="150" as="geometry" />
        </mxCell>
        <mxCell id="OHBltOvMj3yplkKkjRe--77" value="api/users/ [DELETE]&lt;div&gt;&lt;br&gt;&lt;/div&gt;" style="text;strokeColor=none;fillColor=none;align=left;verticalAlign=top;spacingLeft=4;spacingRight=4;overflow=hidden;rotatable=0;points=[[0,0.5],[1,0.5]];portConstraint=eastwest;whiteSpace=wrap;html=1;" vertex="1" parent="OHBltOvMj3yplkKkjRe--76">
          <mxGeometry y="26" width="160" height="26" as="geometry" />
        </mxCell>
        <mxCell id="OHBltOvMj3yplkKkjRe--78" value="" style="line;strokeWidth=1;fillColor=none;align=left;verticalAlign=middle;spacingTop=-1;spacingLeft=3;spacingRight=3;rotatable=0;labelPosition=right;points=[];portConstraint=eastwest;strokeColor=inherit;" vertex="1" parent="OHBltOvMj3yplkKkjRe--76">
          <mxGeometry y="52" width="160" height="8" as="geometry" />
        </mxCell>
        <UserObject label="&lt;div style=&quot;forced-color-adjust: none; border-color: rgb(0, 0, 0); color: rgb(248, 248, 242); font-family: IBMPlexMono, monospace, &amp;quot;Droid Sans Fallback&amp;quot;, &amp;quot;Droid Sans Mono&amp;quot;, &amp;quot;monospace&amp;quot;, monospace; font-size: 12px; font-style: normal; font-variant-ligatures: normal; font-variant-caps: normal; font-weight: 400; letter-spacing: normal; orphans: 2; text-align: left; text-indent: 0px; text-transform: none; widows: 2; word-spacing: 0px; -webkit-text-stroke-width: 0px; white-space: pre; text-decoration-thickness: initial; text-decoration-style: initial; text-decoration-color: initial;&quot;&gt;&lt;span style=&quot;forced-color-adjust: none; border-color: rgb(0, 0, 0); color: rgb(220, 220, 220);&quot;&gt;{&lt;/span&gt;&lt;/div&gt;&lt;div style=&quot;forced-color-adjust: none; border-color: rgb(0, 0, 0); color: rgb(248, 248, 242); font-family: IBMPlexMono, monospace, &amp;quot;Droid Sans Fallback&amp;quot;, &amp;quot;Droid Sans Mono&amp;quot;, &amp;quot;monospace&amp;quot;, monospace; font-size: 12px; font-style: normal; font-variant-ligatures: normal; font-variant-caps: normal; font-weight: 400; letter-spacing: normal; orphans: 2; text-align: left; text-indent: 0px; text-transform: none; widows: 2; word-spacing: 0px; -webkit-text-stroke-width: 0px; white-space: pre; text-decoration-thickness: initial; text-decoration-style: initial; text-decoration-color: initial;&quot;&gt;&lt;span style=&quot;forced-color-adjust: none; border-color: rgb(0, 0, 0); color: rgb(248, 248, 242);&quot;&gt;    &lt;/span&gt;&lt;span style=&quot;forced-color-adjust: none; border-color: rgb(0, 0, 0); color: rgb(156, 220, 254);&quot;&gt;&quot;username&quot;&lt;/span&gt;&lt;span style=&quot;forced-color-adjust: none; border-color: rgb(0, 0, 0); color: rgb(220, 220, 220);&quot;&gt;:&lt;/span&gt;&lt;span style=&quot;forced-color-adjust: none; border-color: rgb(0, 0, 0); color: rgb(248, 248, 242);&quot;&gt; &lt;/span&gt;&lt;span style=&quot;forced-color-adjust: none; border-color: rgb(0, 0, 0); color: rgb(206, 145, 120);&quot;&gt;&quot;&quot;&lt;/span&gt;&lt;span style=&quot;forced-color-adjust: none; border-color: rgb(0, 0, 0); color: rgb(220, 220, 220);&quot;&gt;,&lt;/span&gt;&lt;/div&gt;&lt;div style=&quot;forced-color-adjust: none; border-color: rgb(0, 0, 0); color: rgb(248, 248, 242); font-family: IBMPlexMono, monospace, &amp;quot;Droid Sans Fallback&amp;quot;, &amp;quot;Droid Sans Mono&amp;quot;, &amp;quot;monospace&amp;quot;, monospace; font-size: 12px; font-style: normal; font-variant-ligatures: normal; font-variant-caps: normal; font-weight: 400; letter-spacing: normal; orphans: 2; text-align: left; text-indent: 0px; text-transform: none; widows: 2; word-spacing: 0px; -webkit-text-stroke-width: 0px; white-space: pre; text-decoration-thickness: initial; text-decoration-style: initial; text-decoration-color: initial;&quot;&gt;&lt;span style=&quot;forced-color-adjust: none; border-color: rgb(0, 0, 0); color: rgb(248, 248, 242);&quot;&gt;    &lt;/span&gt;&lt;span style=&quot;forced-color-adjust: none; border-color: rgb(0, 0, 0); color: rgb(156, 220, 254);&quot;&gt;&quot;password&quot;&lt;/span&gt;&lt;span style=&quot;forced-color-adjust: none; border-color: rgb(0, 0, 0); color: rgb(220, 220, 220);&quot;&gt;:&lt;/span&gt;&lt;span style=&quot;forced-color-adjust: none; border-color: rgb(0, 0, 0); color: rgb(248, 248, 242);&quot;&gt; &lt;/span&gt;&lt;span style=&quot;forced-color-adjust: none; border-color: rgb(0, 0, 0); color: rgb(206, 145, 120);&quot;&gt;&quot;&quot;&lt;/span&gt;&lt;/div&gt;&lt;div style=&quot;forced-color-adjust: none; border-color: rgb(0, 0, 0); color: rgb(248, 248, 242); font-family: IBMPlexMono, monospace, &amp;quot;Droid Sans Fallback&amp;quot;, &amp;quot;Droid Sans Mono&amp;quot;, &amp;quot;monospace&amp;quot;, monospace; font-size: 12px; font-style: normal; font-variant-ligatures: normal; font-variant-caps: normal; font-weight: 400; letter-spacing: normal; orphans: 2; text-align: left; text-indent: 0px; text-transform: none; widows: 2; word-spacing: 0px; -webkit-text-stroke-width: 0px; white-space: pre; text-decoration-thickness: initial; text-decoration-style: initial; text-decoration-color: initial;&quot;&gt;&lt;span style=&quot;forced-color-adjust: none; border-color: rgb(0, 0, 0); color: rgb(220, 220, 220);&quot;&gt;}&lt;/span&gt;&lt;/div&gt;" link="&lt;div style=&quot;forced-color-adjust: none; border-color: rgb(0, 0, 0); color: rgb(248, 248, 242); font-family: IBMPlexMono, monospace, &amp;quot;Droid Sans Fallback&amp;quot;, &amp;quot;Droid Sans Mono&amp;quot;, &amp;quot;monospace&amp;quot;, monospace; font-size: 12px; font-style: normal; font-variant-ligatures: normal; font-variant-caps: normal; font-weight: 400; letter-spacing: normal; orphans: 2; text-align: left; text-indent: 0px; text-transform: none; widows: 2; word-spacing: 0px; -webkit-text-stroke-width: 0px; white-space: pre; background-color: rgb(27, 29, 30); text-decoration-thickness: initial; text-decoration-style: initial; text-decoration-color: initial;&quot;&gt;&lt;span style=&quot;forced-color-adjust: none; border-color: rgb(0, 0, 0); color: rgb(220, 220, 220);&quot;&gt;{&lt;/span&gt;&lt;/div&gt;&lt;div style=&quot;forced-color-adjust: none; border-color: rgb(0, 0, 0); color: rgb(248, 248, 242); font-family: IBMPlexMono, monospace, &amp;quot;Droid Sans Fallback&amp;quot;, &amp;quot;Droid Sans Mono&amp;quot;, &amp;quot;monospace&amp;quot;, monospace; font-size: 12px; font-style: normal; font-variant-ligatures: normal; font-variant-caps: normal; font-weight: 400; letter-spacing: normal; orphans: 2; text-align: left; text-indent: 0px; text-transform: none; widows: 2; word-spacing: 0px; -webkit-text-stroke-width: 0px; white-space: pre; background-color: rgb(27, 29, 30); text-decoration-thickness: initial; text-decoration-style: initial; text-decoration-color: initial;&quot;&gt;&lt;span style=&quot;forced-color-adjust: none; border-color: rgb(0, 0, 0); color: rgb(248, 248, 242);&quot;&gt;    &lt;/span&gt;&lt;span style=&quot;forced-color-adjust: none; border-color: rgb(0, 0, 0); color: rgb(156, 220, 254);&quot;&gt;&quot;username&quot;&lt;/span&gt;&lt;span style=&quot;forced-color-adjust: none; border-color: rgb(0, 0, 0); color: rgb(220, 220, 220);&quot;&gt;:&lt;/span&gt;&lt;span style=&quot;forced-color-adjust: none; border-color: rgb(0, 0, 0); color: rgb(248, 248, 242);&quot;&gt; &lt;/span&gt;&lt;span style=&quot;forced-color-adjust: none; border-color: rgb(0, 0, 0); color: rgb(206, 145, 120);&quot;&gt;&quot;Jose&quot;&lt;/span&gt;&lt;span style=&quot;forced-color-adjust: none; border-color: rgb(0, 0, 0); color: rgb(220, 220, 220);&quot;&gt;,&lt;/span&gt;&lt;/div&gt;&lt;div style=&quot;forced-color-adjust: none; border-color: rgb(0, 0, 0); color: rgb(248, 248, 242); font-family: IBMPlexMono, monospace, &amp;quot;Droid Sans Fallback&amp;quot;, &amp;quot;Droid Sans Mono&amp;quot;, &amp;quot;monospace&amp;quot;, monospace; font-size: 12px; font-style: normal; font-variant-ligatures: normal; font-variant-caps: normal; font-weight: 400; letter-spacing: normal; orphans: 2; text-align: left; text-indent: 0px; text-transform: none; widows: 2; word-spacing: 0px; -webkit-text-stroke-width: 0px; white-space: pre; background-color: rgb(27, 29, 30); text-decoration-thickness: initial; text-decoration-style: initial; text-decoration-color: initial;&quot;&gt;&lt;span style=&quot;forced-color-adjust: none; border-color: rgb(0, 0, 0); color: rgb(248, 248, 242);&quot;&gt;    &lt;/span&gt;&lt;span style=&quot;forced-color-adjust: none; border-color: rgb(0, 0, 0); color: rgb(156, 220, 254);&quot;&gt;&quot;email&quot;&lt;/span&gt;&lt;span style=&quot;forced-color-adjust: none; border-color: rgb(0, 0, 0); color: rgb(220, 220, 220);&quot;&gt;:&lt;/span&gt;&lt;span style=&quot;forced-color-adjust: none; border-color: rgb(0, 0, 0); color: rgb(248, 248, 242);&quot;&gt; &lt;/span&gt;&lt;span style=&quot;forced-color-adjust: none; border-color: rgb(0, 0, 0); color: rgb(206, 145, 120);&quot;&gt;&quot;jose@example.com&quot;&lt;/span&gt;&lt;span style=&quot;forced-color-adjust: none; border-color: rgb(0, 0, 0); color: rgb(220, 220, 220);&quot;&gt;,&lt;/span&gt;&lt;/div&gt;&lt;div style=&quot;forced-color-adjust: none; border-color: rgb(0, 0, 0); color: rgb(248, 248, 242); font-family: IBMPlexMono, monospace, &amp;quot;Droid Sans Fallback&amp;quot;, &amp;quot;Droid Sans Mono&amp;quot;, &amp;quot;monospace&amp;quot;, monospace; font-size: 12px; font-style: normal; font-variant-ligatures: normal; font-variant-caps: normal; font-weight: 400; letter-spacing: normal; orphans: 2; text-align: left; text-indent: 0px; text-transform: none; widows: 2; word-spacing: 0px; -webkit-text-stroke-width: 0px; white-space: pre; background-color: rgb(27, 29, 30); text-decoration-thickness: initial; text-decoration-style: initial; text-decoration-color: initial;&quot;&gt;&lt;span style=&quot;forced-color-adjust: none; border-color: rgb(0, 0, 0); color: rgb(248, 248, 242);&quot;&gt;    &lt;/span&gt;&lt;span style=&quot;forced-color-adjust: none; border-color: rgb(0, 0, 0); color: rgb(156, 220, 254);&quot;&gt;&quot;password&quot;&lt;/span&gt;&lt;span style=&quot;forced-color-adjust: none; border-color: rgb(0, 0, 0); color: rgb(220, 220, 220);&quot;&gt;:&lt;/span&gt;&lt;span style=&quot;forced-color-adjust: none; border-color: rgb(0, 0, 0); color: rgb(248, 248, 242);&quot;&gt; &lt;/span&gt;&lt;span style=&quot;forced-color-adjust: none; border-color: rgb(0, 0, 0); color: rgb(206, 145, 120);&quot;&gt;&quot;strong_password&quot;&lt;/span&gt;&lt;/div&gt;&lt;div style=&quot;forced-color-adjust: none; border-color: rgb(0, 0, 0); color: rgb(248, 248, 242); font-family: IBMPlexMono, monospace, &amp;quot;Droid Sans Fallback&amp;quot;, &amp;quot;Droid Sans Mono&amp;quot;, &amp;quot;monospace&amp;quot;, monospace; font-size: 12px; font-style: normal; font-variant-ligatures: normal; font-variant-caps: normal; font-weight: 400; letter-spacing: normal; orphans: 2; text-align: left; text-indent: 0px; text-transform: none; widows: 2; word-spacing: 0px; -webkit-text-stroke-width: 0px; white-space: pre; background-color: rgb(27, 29, 30); text-decoration-thickness: initial; text-decoration-style: initial; text-decoration-color: initial;&quot;&gt;&lt;span style=&quot;forced-color-adjust: none; border-color: rgb(0, 0, 0); color: rgb(220, 220, 220);&quot;&gt;}&lt;/span&gt;&lt;/div&gt;" id="OHBltOvMj3yplkKkjRe--79">
          <mxCell style="text;whiteSpace=wrap;html=1;labelBackgroundColor=none;" vertex="1" parent="OHBltOvMj3yplkKkjRe--76">
            <mxGeometry y="60" width="160" height="90" as="geometry" />
          </mxCell>
        </UserObject>
        <mxCell id="OHBltOvMj3yplkKkjRe--80" value="Get users list" style="swimlane;fontStyle=1;align=center;verticalAlign=top;childLayout=stackLayout;horizontal=1;startSize=26;horizontalStack=0;resizeParent=1;resizeParentMax=0;resizeLast=0;collapsible=1;marginBottom=0;whiteSpace=wrap;html=1;" vertex="1" parent="1">
          <mxGeometry x="1280" y="360" width="130" height="150" as="geometry" />
        </mxCell>
        <mxCell id="OHBltOvMj3yplkKkjRe--81" value="api/users/ [GET]&lt;div&gt;&lt;br&gt;&lt;/div&gt;" style="text;strokeColor=none;fillColor=none;align=left;verticalAlign=top;spacingLeft=4;spacingRight=4;overflow=hidden;rotatable=0;points=[[0,0.5],[1,0.5]];portConstraint=eastwest;whiteSpace=wrap;html=1;" vertex="1" parent="OHBltOvMj3yplkKkjRe--80">
          <mxGeometry y="26" width="130" height="26" as="geometry" />
        </mxCell>
        <mxCell id="OHBltOvMj3yplkKkjRe--82" value="" style="line;strokeWidth=1;fillColor=none;align=left;verticalAlign=middle;spacingTop=-1;spacingLeft=3;spacingRight=3;rotatable=0;labelPosition=right;points=[];portConstraint=eastwest;strokeColor=inherit;" vertex="1" parent="OHBltOvMj3yplkKkjRe--80">
          <mxGeometry y="52" width="130" height="8" as="geometry" />
        </mxCell>
        <UserObject label="&lt;div style=&quot;forced-color-adjust: none; border-color: rgb(0, 0, 0); font-family: IBMPlexMono, monospace, &amp;quot;Droid Sans Fallback&amp;quot;, &amp;quot;Droid Sans Mono&amp;quot;, &amp;quot;monospace&amp;quot;, monospace; font-size: 12px; font-style: normal; font-variant-ligatures: normal; font-variant-caps: normal; font-weight: 400; letter-spacing: normal; orphans: 2; text-align: left; text-indent: 0px; text-transform: none; widows: 2; word-spacing: 0px; -webkit-text-stroke-width: 0px; white-space: pre; text-decoration-thickness: initial; text-decoration-style: initial; text-decoration-color: initial;&quot;&gt;&lt;font color=&quot;#dcdcdc&quot;&gt;{&lt;/font&gt;&lt;/div&gt;&lt;div style=&quot;forced-color-adjust: none; border-color: rgb(0, 0, 0); font-family: IBMPlexMono, monospace, &amp;quot;Droid Sans Fallback&amp;quot;, &amp;quot;Droid Sans Mono&amp;quot;, &amp;quot;monospace&amp;quot;, monospace; font-size: 12px; font-style: normal; font-variant-ligatures: normal; font-variant-caps: normal; font-weight: 400; letter-spacing: normal; orphans: 2; text-align: left; text-indent: 0px; text-transform: none; widows: 2; word-spacing: 0px; -webkit-text-stroke-width: 0px; white-space: pre; text-decoration-thickness: initial; text-decoration-style: initial; text-decoration-color: initial;&quot;&gt;&lt;font color=&quot;#dcdcdc&quot;&gt;&lt;br&gt;&lt;/font&gt;&lt;/div&gt;&lt;div style=&quot;forced-color-adjust: none; border-color: rgb(0, 0, 0); font-family: IBMPlexMono, monospace, &amp;quot;Droid Sans Fallback&amp;quot;, &amp;quot;Droid Sans Mono&amp;quot;, &amp;quot;monospace&amp;quot;, monospace; font-size: 12px; font-style: normal; font-variant-ligatures: normal; font-variant-caps: normal; font-weight: 400; letter-spacing: normal; orphans: 2; text-align: left; text-indent: 0px; text-transform: none; widows: 2; word-spacing: 0px; -webkit-text-stroke-width: 0px; white-space: pre; text-decoration-thickness: initial; text-decoration-style: initial; text-decoration-color: initial;&quot;&gt;&lt;font color=&quot;#dcdcdc&quot;&gt;}&lt;/font&gt;&lt;/div&gt;" link="&lt;div style=&quot;forced-color-adjust: none; border-color: rgb(0, 0, 0); color: rgb(248, 248, 242); font-family: IBMPlexMono, monospace, &amp;quot;Droid Sans Fallback&amp;quot;, &amp;quot;Droid Sans Mono&amp;quot;, &amp;quot;monospace&amp;quot;, monospace; font-size: 12px; font-style: normal; font-variant-ligatures: normal; font-variant-caps: normal; font-weight: 400; letter-spacing: normal; orphans: 2; text-align: left; text-indent: 0px; text-transform: none; widows: 2; word-spacing: 0px; -webkit-text-stroke-width: 0px; white-space: pre; background-color: rgb(27, 29, 30); text-decoration-thickness: initial; text-decoration-style: initial; text-decoration-color: initial;&quot;&gt;&lt;span style=&quot;forced-color-adjust: none; border-color: rgb(0, 0, 0); color: rgb(220, 220, 220);&quot;&gt;{&lt;/span&gt;&lt;/div&gt;&lt;div style=&quot;forced-color-adjust: none; border-color: rgb(0, 0, 0); color: rgb(248, 248, 242); font-family: IBMPlexMono, monospace, &amp;quot;Droid Sans Fallback&amp;quot;, &amp;quot;Droid Sans Mono&amp;quot;, &amp;quot;monospace&amp;quot;, monospace; font-size: 12px; font-style: normal; font-variant-ligatures: normal; font-variant-caps: normal; font-weight: 400; letter-spacing: normal; orphans: 2; text-align: left; text-indent: 0px; text-transform: none; widows: 2; word-spacing: 0px; -webkit-text-stroke-width: 0px; white-space: pre; background-color: rgb(27, 29, 30); text-decoration-thickness: initial; text-decoration-style: initial; text-decoration-color: initial;&quot;&gt;&lt;span style=&quot;forced-color-adjust: none; border-color: rgb(0, 0, 0); color: rgb(248, 248, 242);&quot;&gt;    &lt;/span&gt;&lt;span style=&quot;forced-color-adjust: none; border-color: rgb(0, 0, 0); color: rgb(156, 220, 254);&quot;&gt;&quot;username&quot;&lt;/span&gt;&lt;span style=&quot;forced-color-adjust: none; border-color: rgb(0, 0, 0); color: rgb(220, 220, 220);&quot;&gt;:&lt;/span&gt;&lt;span style=&quot;forced-color-adjust: none; border-color: rgb(0, 0, 0); color: rgb(248, 248, 242);&quot;&gt; &lt;/span&gt;&lt;span style=&quot;forced-color-adjust: none; border-color: rgb(0, 0, 0); color: rgb(206, 145, 120);&quot;&gt;&quot;Jose&quot;&lt;/span&gt;&lt;span style=&quot;forced-color-adjust: none; border-color: rgb(0, 0, 0); color: rgb(220, 220, 220);&quot;&gt;,&lt;/span&gt;&lt;/div&gt;&lt;div style=&quot;forced-color-adjust: none; border-color: rgb(0, 0, 0); color: rgb(248, 248, 242); font-family: IBMPlexMono, monospace, &amp;quot;Droid Sans Fallback&amp;quot;, &amp;quot;Droid Sans Mono&amp;quot;, &amp;quot;monospace&amp;quot;, monospace; font-size: 12px; font-style: normal; font-variant-ligatures: normal; font-variant-caps: normal; font-weight: 400; letter-spacing: normal; orphans: 2; text-align: left; text-indent: 0px; text-transform: none; widows: 2; word-spacing: 0px; -webkit-text-stroke-width: 0px; white-space: pre; background-color: rgb(27, 29, 30); text-decoration-thickness: initial; text-decoration-style: initial; text-decoration-color: initial;&quot;&gt;&lt;span style=&quot;forced-color-adjust: none; border-color: rgb(0, 0, 0); color: rgb(248, 248, 242);&quot;&gt;    &lt;/span&gt;&lt;span style=&quot;forced-color-adjust: none; border-color: rgb(0, 0, 0); color: rgb(156, 220, 254);&quot;&gt;&quot;email&quot;&lt;/span&gt;&lt;span style=&quot;forced-color-adjust: none; border-color: rgb(0, 0, 0); color: rgb(220, 220, 220);&quot;&gt;:&lt;/span&gt;&lt;span style=&quot;forced-color-adjust: none; border-color: rgb(0, 0, 0); color: rgb(248, 248, 242);&quot;&gt; &lt;/span&gt;&lt;span style=&quot;forced-color-adjust: none; border-color: rgb(0, 0, 0); color: rgb(206, 145, 120);&quot;&gt;&quot;jose@example.com&quot;&lt;/span&gt;&lt;span style=&quot;forced-color-adjust: none; border-color: rgb(0, 0, 0); color: rgb(220, 220, 220);&quot;&gt;,&lt;/span&gt;&lt;/div&gt;&lt;div style=&quot;forced-color-adjust: none; border-color: rgb(0, 0, 0); color: rgb(248, 248, 242); font-family: IBMPlexMono, monospace, &amp;quot;Droid Sans Fallback&amp;quot;, &amp;quot;Droid Sans Mono&amp;quot;, &amp;quot;monospace&amp;quot;, monospace; font-size: 12px; font-style: normal; font-variant-ligatures: normal; font-variant-caps: normal; font-weight: 400; letter-spacing: normal; orphans: 2; text-align: left; text-indent: 0px; text-transform: none; widows: 2; word-spacing: 0px; -webkit-text-stroke-width: 0px; white-space: pre; background-color: rgb(27, 29, 30); text-decoration-thickness: initial; text-decoration-style: initial; text-decoration-color: initial;&quot;&gt;&lt;span style=&quot;forced-color-adjust: none; border-color: rgb(0, 0, 0); color: rgb(248, 248, 242);&quot;&gt;    &lt;/span&gt;&lt;span style=&quot;forced-color-adjust: none; border-color: rgb(0, 0, 0); color: rgb(156, 220, 254);&quot;&gt;&quot;password&quot;&lt;/span&gt;&lt;span style=&quot;forced-color-adjust: none; border-color: rgb(0, 0, 0); color: rgb(220, 220, 220);&quot;&gt;:&lt;/span&gt;&lt;span style=&quot;forced-color-adjust: none; border-color: rgb(0, 0, 0); color: rgb(248, 248, 242);&quot;&gt; &lt;/span&gt;&lt;span style=&quot;forced-color-adjust: none; border-color: rgb(0, 0, 0); color: rgb(206, 145, 120);&quot;&gt;&quot;strong_password&quot;&lt;/span&gt;&lt;/div&gt;&lt;div style=&quot;forced-color-adjust: none; border-color: rgb(0, 0, 0); color: rgb(248, 248, 242); font-family: IBMPlexMono, monospace, &amp;quot;Droid Sans Fallback&amp;quot;, &amp;quot;Droid Sans Mono&amp;quot;, &amp;quot;monospace&amp;quot;, monospace; font-size: 12px; font-style: normal; font-variant-ligatures: normal; font-variant-caps: normal; font-weight: 400; letter-spacing: normal; orphans: 2; text-align: left; text-indent: 0px; text-transform: none; widows: 2; word-spacing: 0px; -webkit-text-stroke-width: 0px; white-space: pre; background-color: rgb(27, 29, 30); text-decoration-thickness: initial; text-decoration-style: initial; text-decoration-color: initial;&quot;&gt;&lt;span style=&quot;forced-color-adjust: none; border-color: rgb(0, 0, 0); color: rgb(220, 220, 220);&quot;&gt;}&lt;/span&gt;&lt;/div&gt;" id="OHBltOvMj3yplkKkjRe--83">
          <mxCell style="text;whiteSpace=wrap;html=1;labelBackgroundColor=none;" vertex="1" parent="OHBltOvMj3yplkKkjRe--80">
            <mxGeometry y="60" width="130" height="90" as="geometry" />
          </mxCell>
        </UserObject>
        <mxCell id="OHBltOvMj3yplkKkjRe--84" value="Get user info" style="swimlane;fontStyle=1;align=center;verticalAlign=top;childLayout=stackLayout;horizontal=1;startSize=26;horizontalStack=0;resizeParent=1;resizeParentMax=0;resizeLast=0;collapsible=1;marginBottom=0;whiteSpace=wrap;html=1;" vertex="1" parent="1">
          <mxGeometry x="1420" y="360" width="130" height="150" as="geometry" />
        </mxCell>
        <mxCell id="OHBltOvMj3yplkKkjRe--85" value="api/users/&amp;lt;id&amp;gt; [GET]&lt;div&gt;&lt;br&gt;&lt;/div&gt;" style="text;strokeColor=none;fillColor=none;align=left;verticalAlign=top;spacingLeft=4;spacingRight=4;overflow=hidden;rotatable=0;points=[[0,0.5],[1,0.5]];portConstraint=eastwest;whiteSpace=wrap;html=1;" vertex="1" parent="OHBltOvMj3yplkKkjRe--84">
          <mxGeometry y="26" width="130" height="26" as="geometry" />
        </mxCell>
        <mxCell id="OHBltOvMj3yplkKkjRe--86" value="" style="line;strokeWidth=1;fillColor=none;align=left;verticalAlign=middle;spacingTop=-1;spacingLeft=3;spacingRight=3;rotatable=0;labelPosition=right;points=[];portConstraint=eastwest;strokeColor=inherit;" vertex="1" parent="OHBltOvMj3yplkKkjRe--84">
          <mxGeometry y="52" width="130" height="8" as="geometry" />
        </mxCell>
        <UserObject label="&lt;div style=&quot;forced-color-adjust: none; border-color: rgb(0, 0, 0); font-family: IBMPlexMono, monospace, &amp;quot;Droid Sans Fallback&amp;quot;, &amp;quot;Droid Sans Mono&amp;quot;, &amp;quot;monospace&amp;quot;, monospace; font-size: 12px; font-style: normal; font-variant-ligatures: normal; font-variant-caps: normal; font-weight: 400; letter-spacing: normal; orphans: 2; text-align: left; text-indent: 0px; text-transform: none; widows: 2; word-spacing: 0px; -webkit-text-stroke-width: 0px; white-space: pre; text-decoration-thickness: initial; text-decoration-style: initial; text-decoration-color: initial;&quot;&gt;&lt;font color=&quot;#dcdcdc&quot;&gt;{&lt;/font&gt;&lt;/div&gt;&lt;div style=&quot;forced-color-adjust: none; border-color: rgb(0, 0, 0); font-family: IBMPlexMono, monospace, &amp;quot;Droid Sans Fallback&amp;quot;, &amp;quot;Droid Sans Mono&amp;quot;, &amp;quot;monospace&amp;quot;, monospace; font-size: 12px; font-style: normal; font-variant-ligatures: normal; font-variant-caps: normal; font-weight: 400; letter-spacing: normal; orphans: 2; text-align: left; text-indent: 0px; text-transform: none; widows: 2; word-spacing: 0px; -webkit-text-stroke-width: 0px; white-space: pre; text-decoration-thickness: initial; text-decoration-style: initial; text-decoration-color: initial;&quot;&gt;&lt;font color=&quot;#dcdcdc&quot;&gt;&lt;br&gt;&lt;/font&gt;&lt;/div&gt;&lt;div style=&quot;forced-color-adjust: none; border-color: rgb(0, 0, 0); font-family: IBMPlexMono, monospace, &amp;quot;Droid Sans Fallback&amp;quot;, &amp;quot;Droid Sans Mono&amp;quot;, &amp;quot;monospace&amp;quot;, monospace; font-size: 12px; font-style: normal; font-variant-ligatures: normal; font-variant-caps: normal; font-weight: 400; letter-spacing: normal; orphans: 2; text-align: left; text-indent: 0px; text-transform: none; widows: 2; word-spacing: 0px; -webkit-text-stroke-width: 0px; white-space: pre; text-decoration-thickness: initial; text-decoration-style: initial; text-decoration-color: initial;&quot;&gt;&lt;font color=&quot;#dcdcdc&quot;&gt;}&lt;/font&gt;&lt;/div&gt;" link="&lt;div style=&quot;forced-color-adjust: none; border-color: rgb(0, 0, 0); color: rgb(248, 248, 242); font-family: IBMPlexMono, monospace, &amp;quot;Droid Sans Fallback&amp;quot;, &amp;quot;Droid Sans Mono&amp;quot;, &amp;quot;monospace&amp;quot;, monospace; font-size: 12px; font-style: normal; font-variant-ligatures: normal; font-variant-caps: normal; font-weight: 400; letter-spacing: normal; orphans: 2; text-align: left; text-indent: 0px; text-transform: none; widows: 2; word-spacing: 0px; -webkit-text-stroke-width: 0px; white-space: pre; background-color: rgb(27, 29, 30); text-decoration-thickness: initial; text-decoration-style: initial; text-decoration-color: initial;&quot;&gt;&lt;span style=&quot;forced-color-adjust: none; border-color: rgb(0, 0, 0); color: rgb(220, 220, 220);&quot;&gt;{&lt;/span&gt;&lt;/div&gt;&lt;div style=&quot;forced-color-adjust: none; border-color: rgb(0, 0, 0); color: rgb(248, 248, 242); font-family: IBMPlexMono, monospace, &amp;quot;Droid Sans Fallback&amp;quot;, &amp;quot;Droid Sans Mono&amp;quot;, &amp;quot;monospace&amp;quot;, monospace; font-size: 12px; font-style: normal; font-variant-ligatures: normal; font-variant-caps: normal; font-weight: 400; letter-spacing: normal; orphans: 2; text-align: left; text-indent: 0px; text-transform: none; widows: 2; word-spacing: 0px; -webkit-text-stroke-width: 0px; white-space: pre; background-color: rgb(27, 29, 30); text-decoration-thickness: initial; text-decoration-style: initial; text-decoration-color: initial;&quot;&gt;&lt;span style=&quot;forced-color-adjust: none; border-color: rgb(0, 0, 0); color: rgb(248, 248, 242);&quot;&gt;    &lt;/span&gt;&lt;span style=&quot;forced-color-adjust: none; border-color: rgb(0, 0, 0); color: rgb(156, 220, 254);&quot;&gt;&quot;username&quot;&lt;/span&gt;&lt;span style=&quot;forced-color-adjust: none; border-color: rgb(0, 0, 0); color: rgb(220, 220, 220);&quot;&gt;:&lt;/span&gt;&lt;span style=&quot;forced-color-adjust: none; border-color: rgb(0, 0, 0); color: rgb(248, 248, 242);&quot;&gt; &lt;/span&gt;&lt;span style=&quot;forced-color-adjust: none; border-color: rgb(0, 0, 0); color: rgb(206, 145, 120);&quot;&gt;&quot;Jose&quot;&lt;/span&gt;&lt;span style=&quot;forced-color-adjust: none; border-color: rgb(0, 0, 0); color: rgb(220, 220, 220);&quot;&gt;,&lt;/span&gt;&lt;/div&gt;&lt;div style=&quot;forced-color-adjust: none; border-color: rgb(0, 0, 0); color: rgb(248, 248, 242); font-family: IBMPlexMono, monospace, &amp;quot;Droid Sans Fallback&amp;quot;, &amp;quot;Droid Sans Mono&amp;quot;, &amp;quot;monospace&amp;quot;, monospace; font-size: 12px; font-style: normal; font-variant-ligatures: normal; font-variant-caps: normal; font-weight: 400; letter-spacing: normal; orphans: 2; text-align: left; text-indent: 0px; text-transform: none; widows: 2; word-spacing: 0px; -webkit-text-stroke-width: 0px; white-space: pre; background-color: rgb(27, 29, 30); text-decoration-thickness: initial; text-decoration-style: initial; text-decoration-color: initial;&quot;&gt;&lt;span style=&quot;forced-color-adjust: none; border-color: rgb(0, 0, 0); color: rgb(248, 248, 242);&quot;&gt;    &lt;/span&gt;&lt;span style=&quot;forced-color-adjust: none; border-color: rgb(0, 0, 0); color: rgb(156, 220, 254);&quot;&gt;&quot;email&quot;&lt;/span&gt;&lt;span style=&quot;forced-color-adjust: none; border-color: rgb(0, 0, 0); color: rgb(220, 220, 220);&quot;&gt;:&lt;/span&gt;&lt;span style=&quot;forced-color-adjust: none; border-color: rgb(0, 0, 0); color: rgb(248, 248, 242);&quot;&gt; &lt;/span&gt;&lt;span style=&quot;forced-color-adjust: none; border-color: rgb(0, 0, 0); color: rgb(206, 145, 120);&quot;&gt;&quot;jose@example.com&quot;&lt;/span&gt;&lt;span style=&quot;forced-color-adjust: none; border-color: rgb(0, 0, 0); color: rgb(220, 220, 220);&quot;&gt;,&lt;/span&gt;&lt;/div&gt;&lt;div style=&quot;forced-color-adjust: none; border-color: rgb(0, 0, 0); color: rgb(248, 248, 242); font-family: IBMPlexMono, monospace, &amp;quot;Droid Sans Fallback&amp;quot;, &amp;quot;Droid Sans Mono&amp;quot;, &amp;quot;monospace&amp;quot;, monospace; font-size: 12px; font-style: normal; font-variant-ligatures: normal; font-variant-caps: normal; font-weight: 400; letter-spacing: normal; orphans: 2; text-align: left; text-indent: 0px; text-transform: none; widows: 2; word-spacing: 0px; -webkit-text-stroke-width: 0px; white-space: pre; background-color: rgb(27, 29, 30); text-decoration-thickness: initial; text-decoration-style: initial; text-decoration-color: initial;&quot;&gt;&lt;span style=&quot;forced-color-adjust: none; border-color: rgb(0, 0, 0); color: rgb(248, 248, 242);&quot;&gt;    &lt;/span&gt;&lt;span style=&quot;forced-color-adjust: none; border-color: rgb(0, 0, 0); color: rgb(156, 220, 254);&quot;&gt;&quot;password&quot;&lt;/span&gt;&lt;span style=&quot;forced-color-adjust: none; border-color: rgb(0, 0, 0); color: rgb(220, 220, 220);&quot;&gt;:&lt;/span&gt;&lt;span style=&quot;forced-color-adjust: none; border-color: rgb(0, 0, 0); color: rgb(248, 248, 242);&quot;&gt; &lt;/span&gt;&lt;span style=&quot;forced-color-adjust: none; border-color: rgb(0, 0, 0); color: rgb(206, 145, 120);&quot;&gt;&quot;strong_password&quot;&lt;/span&gt;&lt;/div&gt;&lt;div style=&quot;forced-color-adjust: none; border-color: rgb(0, 0, 0); color: rgb(248, 248, 242); font-family: IBMPlexMono, monospace, &amp;quot;Droid Sans Fallback&amp;quot;, &amp;quot;Droid Sans Mono&amp;quot;, &amp;quot;monospace&amp;quot;, monospace; font-size: 12px; font-style: normal; font-variant-ligatures: normal; font-variant-caps: normal; font-weight: 400; letter-spacing: normal; orphans: 2; text-align: left; text-indent: 0px; text-transform: none; widows: 2; word-spacing: 0px; -webkit-text-stroke-width: 0px; white-space: pre; background-color: rgb(27, 29, 30); text-decoration-thickness: initial; text-decoration-style: initial; text-decoration-color: initial;&quot;&gt;&lt;span style=&quot;forced-color-adjust: none; border-color: rgb(0, 0, 0); color: rgb(220, 220, 220);&quot;&gt;}&lt;/span&gt;&lt;/div&gt;" id="OHBltOvMj3yplkKkjRe--87">
          <mxCell style="text;whiteSpace=wrap;html=1;labelBackgroundColor=none;" vertex="1" parent="OHBltOvMj3yplkKkjRe--84">
            <mxGeometry y="60" width="130" height="90" as="geometry" />
          </mxCell>
        </UserObject>
        <mxCell id="OHBltOvMj3yplkKkjRe--88" value="Login user" style="swimlane;fontStyle=1;align=center;verticalAlign=top;childLayout=stackLayout;horizontal=1;startSize=26;horizontalStack=0;resizeParent=1;resizeParentMax=0;resizeLast=0;collapsible=1;marginBottom=0;whiteSpace=wrap;html=1;" vertex="1" parent="1">
          <mxGeometry x="940" y="520" width="160" height="150" as="geometry" />
        </mxCell>
        <mxCell id="OHBltOvMj3yplkKkjRe--89" value="api/users/login [POST]&lt;div&gt;&lt;br&gt;&lt;/div&gt;" style="text;strokeColor=none;fillColor=none;align=left;verticalAlign=top;spacingLeft=4;spacingRight=4;overflow=hidden;rotatable=0;points=[[0,0.5],[1,0.5]];portConstraint=eastwest;whiteSpace=wrap;html=1;" vertex="1" parent="OHBltOvMj3yplkKkjRe--88">
          <mxGeometry y="26" width="160" height="26" as="geometry" />
        </mxCell>
        <mxCell id="OHBltOvMj3yplkKkjRe--90" value="" style="line;strokeWidth=1;fillColor=none;align=left;verticalAlign=middle;spacingTop=-1;spacingLeft=3;spacingRight=3;rotatable=0;labelPosition=right;points=[];portConstraint=eastwest;strokeColor=inherit;" vertex="1" parent="OHBltOvMj3yplkKkjRe--88">
          <mxGeometry y="52" width="160" height="8" as="geometry" />
        </mxCell>
        <UserObject label="&lt;div style=&quot;forced-color-adjust: none; border-color: rgb(0, 0, 0); color: rgb(248, 248, 242); font-family: IBMPlexMono, monospace, &amp;quot;Droid Sans Fallback&amp;quot;, &amp;quot;Droid Sans Mono&amp;quot;, &amp;quot;monospace&amp;quot;, monospace; font-size: 12px; font-style: normal; font-variant-ligatures: normal; font-variant-caps: normal; font-weight: 400; letter-spacing: normal; orphans: 2; text-align: left; text-indent: 0px; text-transform: none; widows: 2; word-spacing: 0px; -webkit-text-stroke-width: 0px; white-space: pre; text-decoration-thickness: initial; text-decoration-style: initial; text-decoration-color: initial;&quot;&gt;&lt;span style=&quot;forced-color-adjust: none; border-color: rgb(0, 0, 0); color: rgb(220, 220, 220);&quot;&gt;{&lt;/span&gt;&lt;/div&gt;&lt;div style=&quot;forced-color-adjust: none; border-color: rgb(0, 0, 0); color: rgb(248, 248, 242); font-family: IBMPlexMono, monospace, &amp;quot;Droid Sans Fallback&amp;quot;, &amp;quot;Droid Sans Mono&amp;quot;, &amp;quot;monospace&amp;quot;, monospace; font-size: 12px; font-style: normal; font-variant-ligatures: normal; font-variant-caps: normal; font-weight: 400; letter-spacing: normal; orphans: 2; text-align: left; text-indent: 0px; text-transform: none; widows: 2; word-spacing: 0px; -webkit-text-stroke-width: 0px; white-space: pre; text-decoration-thickness: initial; text-decoration-style: initial; text-decoration-color: initial;&quot;&gt;&lt;span style=&quot;forced-color-adjust: none; border-color: rgb(0, 0, 0); color: rgb(248, 248, 242);&quot;&gt;    &lt;/span&gt;&lt;span style=&quot;forced-color-adjust: none; border-color: rgb(0, 0, 0); color: rgb(156, 220, 254);&quot;&gt;&quot;username&quot;&lt;/span&gt;&lt;span style=&quot;forced-color-adjust: none; border-color: rgb(0, 0, 0); color: rgb(220, 220, 220);&quot;&gt;:&lt;/span&gt;&lt;span style=&quot;forced-color-adjust: none; border-color: rgb(0, 0, 0); color: rgb(248, 248, 242);&quot;&gt; &lt;/span&gt;&lt;span style=&quot;forced-color-adjust: none; border-color: rgb(0, 0, 0); color: rgb(206, 145, 120);&quot;&gt;&quot;&quot;&lt;/span&gt;&lt;span style=&quot;forced-color-adjust: none; border-color: rgb(0, 0, 0); color: rgb(220, 220, 220);&quot;&gt;,&lt;/span&gt;&lt;/div&gt;&lt;div style=&quot;forced-color-adjust: none; border-color: rgb(0, 0, 0); color: rgb(248, 248, 242); font-family: IBMPlexMono, monospace, &amp;quot;Droid Sans Fallback&amp;quot;, &amp;quot;Droid Sans Mono&amp;quot;, &amp;quot;monospace&amp;quot;, monospace; font-size: 12px; font-style: normal; font-variant-ligatures: normal; font-variant-caps: normal; font-weight: 400; letter-spacing: normal; orphans: 2; text-align: left; text-indent: 0px; text-transform: none; widows: 2; word-spacing: 0px; -webkit-text-stroke-width: 0px; white-space: pre; text-decoration-thickness: initial; text-decoration-style: initial; text-decoration-color: initial;&quot;&gt;&lt;span style=&quot;forced-color-adjust: none; border-color: rgb(0, 0, 0); color: rgb(248, 248, 242);&quot;&gt;    &lt;/span&gt;&lt;span style=&quot;forced-color-adjust: none; border-color: rgb(0, 0, 0); color: rgb(156, 220, 254);&quot;&gt;&quot;password&quot;&lt;/span&gt;&lt;span style=&quot;forced-color-adjust: none; border-color: rgb(0, 0, 0); color: rgb(220, 220, 220);&quot;&gt;:&lt;/span&gt;&lt;span style=&quot;forced-color-adjust: none; border-color: rgb(0, 0, 0); color: rgb(248, 248, 242);&quot;&gt; &lt;/span&gt;&lt;span style=&quot;forced-color-adjust: none; border-color: rgb(0, 0, 0); color: rgb(206, 145, 120);&quot;&gt;&quot;&quot;&lt;/span&gt;&lt;/div&gt;&lt;div style=&quot;forced-color-adjust: none; border-color: rgb(0, 0, 0); color: rgb(248, 248, 242); font-family: IBMPlexMono, monospace, &amp;quot;Droid Sans Fallback&amp;quot;, &amp;quot;Droid Sans Mono&amp;quot;, &amp;quot;monospace&amp;quot;, monospace; font-size: 12px; font-style: normal; font-variant-ligatures: normal; font-variant-caps: normal; font-weight: 400; letter-spacing: normal; orphans: 2; text-align: left; text-indent: 0px; text-transform: none; widows: 2; word-spacing: 0px; -webkit-text-stroke-width: 0px; white-space: pre; text-decoration-thickness: initial; text-decoration-style: initial; text-decoration-color: initial;&quot;&gt;&lt;span style=&quot;forced-color-adjust: none; border-color: rgb(0, 0, 0); color: rgb(220, 220, 220);&quot;&gt;}&lt;/span&gt;&lt;/div&gt;" link="&lt;div style=&quot;forced-color-adjust: none; border-color: rgb(0, 0, 0); color: rgb(248, 248, 242); font-family: IBMPlexMono, monospace, &amp;quot;Droid Sans Fallback&amp;quot;, &amp;quot;Droid Sans Mono&amp;quot;, &amp;quot;monospace&amp;quot;, monospace; font-size: 12px; font-style: normal; font-variant-ligatures: normal; font-variant-caps: normal; font-weight: 400; letter-spacing: normal; orphans: 2; text-align: left; text-indent: 0px; text-transform: none; widows: 2; word-spacing: 0px; -webkit-text-stroke-width: 0px; white-space: pre; background-color: rgb(27, 29, 30); text-decoration-thickness: initial; text-decoration-style: initial; text-decoration-color: initial;&quot;&gt;&lt;span style=&quot;forced-color-adjust: none; border-color: rgb(0, 0, 0); color: rgb(220, 220, 220);&quot;&gt;{&lt;/span&gt;&lt;/div&gt;&lt;div style=&quot;forced-color-adjust: none; border-color: rgb(0, 0, 0); color: rgb(248, 248, 242); font-family: IBMPlexMono, monospace, &amp;quot;Droid Sans Fallback&amp;quot;, &amp;quot;Droid Sans Mono&amp;quot;, &amp;quot;monospace&amp;quot;, monospace; font-size: 12px; font-style: normal; font-variant-ligatures: normal; font-variant-caps: normal; font-weight: 400; letter-spacing: normal; orphans: 2; text-align: left; text-indent: 0px; text-transform: none; widows: 2; word-spacing: 0px; -webkit-text-stroke-width: 0px; white-space: pre; background-color: rgb(27, 29, 30); text-decoration-thickness: initial; text-decoration-style: initial; text-decoration-color: initial;&quot;&gt;&lt;span style=&quot;forced-color-adjust: none; border-color: rgb(0, 0, 0); color: rgb(248, 248, 242);&quot;&gt;    &lt;/span&gt;&lt;span style=&quot;forced-color-adjust: none; border-color: rgb(0, 0, 0); color: rgb(156, 220, 254);&quot;&gt;&quot;username&quot;&lt;/span&gt;&lt;span style=&quot;forced-color-adjust: none; border-color: rgb(0, 0, 0); color: rgb(220, 220, 220);&quot;&gt;:&lt;/span&gt;&lt;span style=&quot;forced-color-adjust: none; border-color: rgb(0, 0, 0); color: rgb(248, 248, 242);&quot;&gt; &lt;/span&gt;&lt;span style=&quot;forced-color-adjust: none; border-color: rgb(0, 0, 0); color: rgb(206, 145, 120);&quot;&gt;&quot;Jose&quot;&lt;/span&gt;&lt;span style=&quot;forced-color-adjust: none; border-color: rgb(0, 0, 0); color: rgb(220, 220, 220);&quot;&gt;,&lt;/span&gt;&lt;/div&gt;&lt;div style=&quot;forced-color-adjust: none; border-color: rgb(0, 0, 0); color: rgb(248, 248, 242); font-family: IBMPlexMono, monospace, &amp;quot;Droid Sans Fallback&amp;quot;, &amp;quot;Droid Sans Mono&amp;quot;, &amp;quot;monospace&amp;quot;, monospace; font-size: 12px; font-style: normal; font-variant-ligatures: normal; font-variant-caps: normal; font-weight: 400; letter-spacing: normal; orphans: 2; text-align: left; text-indent: 0px; text-transform: none; widows: 2; word-spacing: 0px; -webkit-text-stroke-width: 0px; white-space: pre; background-color: rgb(27, 29, 30); text-decoration-thickness: initial; text-decoration-style: initial; text-decoration-color: initial;&quot;&gt;&lt;span style=&quot;forced-color-adjust: none; border-color: rgb(0, 0, 0); color: rgb(248, 248, 242);&quot;&gt;    &lt;/span&gt;&lt;span style=&quot;forced-color-adjust: none; border-color: rgb(0, 0, 0); color: rgb(156, 220, 254);&quot;&gt;&quot;email&quot;&lt;/span&gt;&lt;span style=&quot;forced-color-adjust: none; border-color: rgb(0, 0, 0); color: rgb(220, 220, 220);&quot;&gt;:&lt;/span&gt;&lt;span style=&quot;forced-color-adjust: none; border-color: rgb(0, 0, 0); color: rgb(248, 248, 242);&quot;&gt; &lt;/span&gt;&lt;span style=&quot;forced-color-adjust: none; border-color: rgb(0, 0, 0); color: rgb(206, 145, 120);&quot;&gt;&quot;jose@example.com&quot;&lt;/span&gt;&lt;span style=&quot;forced-color-adjust: none; border-color: rgb(0, 0, 0); color: rgb(220, 220, 220);&quot;&gt;,&lt;/span&gt;&lt;/div&gt;&lt;div style=&quot;forced-color-adjust: none; border-color: rgb(0, 0, 0); color: rgb(248, 248, 242); font-family: IBMPlexMono, monospace, &amp;quot;Droid Sans Fallback&amp;quot;, &amp;quot;Droid Sans Mono&amp;quot;, &amp;quot;monospace&amp;quot;, monospace; font-size: 12px; font-style: normal; font-variant-ligatures: normal; font-variant-caps: normal; font-weight: 400; letter-spacing: normal; orphans: 2; text-align: left; text-indent: 0px; text-transform: none; widows: 2; word-spacing: 0px; -webkit-text-stroke-width: 0px; white-space: pre; background-color: rgb(27, 29, 30); text-decoration-thickness: initial; text-decoration-style: initial; text-decoration-color: initial;&quot;&gt;&lt;span style=&quot;forced-color-adjust: none; border-color: rgb(0, 0, 0); color: rgb(248, 248, 242);&quot;&gt;    &lt;/span&gt;&lt;span style=&quot;forced-color-adjust: none; border-color: rgb(0, 0, 0); color: rgb(156, 220, 254);&quot;&gt;&quot;password&quot;&lt;/span&gt;&lt;span style=&quot;forced-color-adjust: none; border-color: rgb(0, 0, 0); color: rgb(220, 220, 220);&quot;&gt;:&lt;/span&gt;&lt;span style=&quot;forced-color-adjust: none; border-color: rgb(0, 0, 0); color: rgb(248, 248, 242);&quot;&gt; &lt;/span&gt;&lt;span style=&quot;forced-color-adjust: none; border-color: rgb(0, 0, 0); color: rgb(206, 145, 120);&quot;&gt;&quot;strong_password&quot;&lt;/span&gt;&lt;/div&gt;&lt;div style=&quot;forced-color-adjust: none; border-color: rgb(0, 0, 0); color: rgb(248, 248, 242); font-family: IBMPlexMono, monospace, &amp;quot;Droid Sans Fallback&amp;quot;, &amp;quot;Droid Sans Mono&amp;quot;, &amp;quot;monospace&amp;quot;, monospace; font-size: 12px; font-style: normal; font-variant-ligatures: normal; font-variant-caps: normal; font-weight: 400; letter-spacing: normal; orphans: 2; text-align: left; text-indent: 0px; text-transform: none; widows: 2; word-spacing: 0px; -webkit-text-stroke-width: 0px; white-space: pre; background-color: rgb(27, 29, 30); text-decoration-thickness: initial; text-decoration-style: initial; text-decoration-color: initial;&quot;&gt;&lt;span style=&quot;forced-color-adjust: none; border-color: rgb(0, 0, 0); color: rgb(220, 220, 220);&quot;&gt;}&lt;/span&gt;&lt;/div&gt;" id="OHBltOvMj3yplkKkjRe--91">
          <mxCell style="text;whiteSpace=wrap;html=1;labelBackgroundColor=none;" vertex="1" parent="OHBltOvMj3yplkKkjRe--88">
            <mxGeometry y="60" width="160" height="90" as="geometry" />
          </mxCell>
        </UserObject>
        <mxCell id="OHBltOvMj3yplkKkjRe--92" value="" style="group" vertex="1" connectable="0" parent="1">
          <mxGeometry x="950" y="710" width="120" height="160" as="geometry" />
        </mxCell>
        <mxCell id="OHBltOvMj3yplkKkjRe--64" value="" style="shape=cylinder3;whiteSpace=wrap;html=1;boundedLbl=1;backgroundOutline=1;size=15;fillColor=#0050ef;fontColor=#ffffff;strokeColor=#001DBC;" vertex="1" parent="OHBltOvMj3yplkKkjRe--92">
          <mxGeometry width="120" height="160" as="geometry" />
        </mxCell>
        <mxCell id="OHBltOvMj3yplkKkjRe--65" value="&lt;div&gt;&lt;font color=&quot;#ffffff&quot;&gt;Tables:&lt;/font&gt;&lt;/div&gt;&lt;ul style=&quot;forced-color-adjust: none; border-color: rgb(0, 0, 0); color: rgb(255, 255, 255); font-family: Helvetica; font-size: 12px; font-style: normal; font-variant-ligatures: normal; font-variant-caps: normal; font-weight: 400; letter-spacing: normal; orphans: 2; text-indent: 0px; text-transform: none; widows: 2; word-spacing: 0px; -webkit-text-stroke-width: 0px; white-space: normal; text-decoration-thickness: initial; text-decoration-style: initial; text-decoration-color: initial;&quot;&gt;&lt;li&gt;&lt;span style=&quot;color: rgb(255, 255, 255); background-color: initial;&quot;&gt;Items&lt;/span&gt;&lt;/li&gt;&lt;li style=&quot;forced-color-adjust: none; border-color: rgb(0, 0, 0);&quot;&gt;Users&lt;/li&gt;&lt;li style=&quot;forced-color-adjust: none; border-color: rgb(0, 0, 0);&quot;&gt;Roles&lt;/li&gt;&lt;li style=&quot;forced-color-adjust: none; border-color: rgb(0, 0, 0);&quot;&gt;Rents&lt;/li&gt;&lt;/ul&gt;" style="text;html=1;align=left;verticalAlign=middle;whiteSpace=wrap;rounded=0;labelBackgroundColor=none;" vertex="1" parent="OHBltOvMj3yplkKkjRe--92">
          <mxGeometry x="15" y="70" width="90" height="70" as="geometry" />
        </mxCell>
        <mxCell id="OHBltOvMj3yplkKkjRe--93" value="Logout user" style="swimlane;fontStyle=1;align=center;verticalAlign=top;childLayout=stackLayout;horizontal=1;startSize=26;horizontalStack=0;resizeParent=1;resizeParentMax=0;resizeLast=0;collapsible=1;marginBottom=0;whiteSpace=wrap;html=1;" vertex="1" parent="1">
          <mxGeometry x="1110" y="520" width="170" height="150" as="geometry" />
        </mxCell>
        <mxCell id="OHBltOvMj3yplkKkjRe--94" value="api/users/&amp;lt;id&amp;gt;/logout [POST]&lt;div&gt;&lt;br&gt;&lt;/div&gt;" style="text;strokeColor=none;fillColor=none;align=left;verticalAlign=top;spacingLeft=4;spacingRight=4;overflow=hidden;rotatable=0;points=[[0,0.5],[1,0.5]];portConstraint=eastwest;whiteSpace=wrap;html=1;" vertex="1" parent="OHBltOvMj3yplkKkjRe--93">
          <mxGeometry y="26" width="170" height="26" as="geometry" />
        </mxCell>
        <mxCell id="OHBltOvMj3yplkKkjRe--95" value="" style="line;strokeWidth=1;fillColor=none;align=left;verticalAlign=middle;spacingTop=-1;spacingLeft=3;spacingRight=3;rotatable=0;labelPosition=right;points=[];portConstraint=eastwest;strokeColor=inherit;" vertex="1" parent="OHBltOvMj3yplkKkjRe--93">
          <mxGeometry y="52" width="170" height="8" as="geometry" />
        </mxCell>
        <UserObject label="&lt;div style=&quot;forced-color-adjust: none; border-color: rgb(0, 0, 0); font-family: IBMPlexMono, monospace, &amp;quot;Droid Sans Fallback&amp;quot;, &amp;quot;Droid Sans Mono&amp;quot;, &amp;quot;monospace&amp;quot;, monospace; font-size: 12px; font-style: normal; font-variant-ligatures: normal; font-variant-caps: normal; font-weight: 400; letter-spacing: normal; orphans: 2; text-align: left; text-indent: 0px; text-transform: none; widows: 2; word-spacing: 0px; -webkit-text-stroke-width: 0px; white-space: pre; text-decoration-thickness: initial; text-decoration-style: initial; text-decoration-color: initial;&quot;&gt;&lt;font color=&quot;#dcdcdc&quot;&gt;{&lt;/font&gt;&lt;/div&gt;&lt;div style=&quot;forced-color-adjust: none; border-color: rgb(0, 0, 0); font-family: IBMPlexMono, monospace, &amp;quot;Droid Sans Fallback&amp;quot;, &amp;quot;Droid Sans Mono&amp;quot;, &amp;quot;monospace&amp;quot;, monospace; font-size: 12px; font-style: normal; font-variant-ligatures: normal; font-variant-caps: normal; font-weight: 400; letter-spacing: normal; orphans: 2; text-align: left; text-indent: 0px; text-transform: none; widows: 2; word-spacing: 0px; -webkit-text-stroke-width: 0px; white-space: pre; text-decoration-thickness: initial; text-decoration-style: initial; text-decoration-color: initial;&quot;&gt;&lt;font color=&quot;#dcdcdc&quot;&gt;&lt;br&gt;&lt;/font&gt;&lt;/div&gt;&lt;div style=&quot;forced-color-adjust: none; border-color: rgb(0, 0, 0); font-family: IBMPlexMono, monospace, &amp;quot;Droid Sans Fallback&amp;quot;, &amp;quot;Droid Sans Mono&amp;quot;, &amp;quot;monospace&amp;quot;, monospace; font-size: 12px; font-style: normal; font-variant-ligatures: normal; font-variant-caps: normal; font-weight: 400; letter-spacing: normal; orphans: 2; text-align: left; text-indent: 0px; text-transform: none; widows: 2; word-spacing: 0px; -webkit-text-stroke-width: 0px; white-space: pre; text-decoration-thickness: initial; text-decoration-style: initial; text-decoration-color: initial;&quot;&gt;&lt;font color=&quot;#dcdcdc&quot;&gt;}&lt;/font&gt;&lt;/div&gt;" link="&lt;div style=&quot;forced-color-adjust: none; border-color: rgb(0, 0, 0); color: rgb(248, 248, 242); font-family: IBMPlexMono, monospace, &amp;quot;Droid Sans Fallback&amp;quot;, &amp;quot;Droid Sans Mono&amp;quot;, &amp;quot;monospace&amp;quot;, monospace; font-size: 12px; font-style: normal; font-variant-ligatures: normal; font-variant-caps: normal; font-weight: 400; letter-spacing: normal; orphans: 2; text-align: left; text-indent: 0px; text-transform: none; widows: 2; word-spacing: 0px; -webkit-text-stroke-width: 0px; white-space: pre; background-color: rgb(27, 29, 30); text-decoration-thickness: initial; text-decoration-style: initial; text-decoration-color: initial;&quot;&gt;&lt;span style=&quot;forced-color-adjust: none; border-color: rgb(0, 0, 0); color: rgb(220, 220, 220);&quot;&gt;{&lt;/span&gt;&lt;/div&gt;&lt;div style=&quot;forced-color-adjust: none; border-color: rgb(0, 0, 0); color: rgb(248, 248, 242); font-family: IBMPlexMono, monospace, &amp;quot;Droid Sans Fallback&amp;quot;, &amp;quot;Droid Sans Mono&amp;quot;, &amp;quot;monospace&amp;quot;, monospace; font-size: 12px; font-style: normal; font-variant-ligatures: normal; font-variant-caps: normal; font-weight: 400; letter-spacing: normal; orphans: 2; text-align: left; text-indent: 0px; text-transform: none; widows: 2; word-spacing: 0px; -webkit-text-stroke-width: 0px; white-space: pre; background-color: rgb(27, 29, 30); text-decoration-thickness: initial; text-decoration-style: initial; text-decoration-color: initial;&quot;&gt;&lt;span style=&quot;forced-color-adjust: none; border-color: rgb(0, 0, 0); color: rgb(248, 248, 242);&quot;&gt;    &lt;/span&gt;&lt;span style=&quot;forced-color-adjust: none; border-color: rgb(0, 0, 0); color: rgb(156, 220, 254);&quot;&gt;&quot;username&quot;&lt;/span&gt;&lt;span style=&quot;forced-color-adjust: none; border-color: rgb(0, 0, 0); color: rgb(220, 220, 220);&quot;&gt;:&lt;/span&gt;&lt;span style=&quot;forced-color-adjust: none; border-color: rgb(0, 0, 0); color: rgb(248, 248, 242);&quot;&gt; &lt;/span&gt;&lt;span style=&quot;forced-color-adjust: none; border-color: rgb(0, 0, 0); color: rgb(206, 145, 120);&quot;&gt;&quot;Jose&quot;&lt;/span&gt;&lt;span style=&quot;forced-color-adjust: none; border-color: rgb(0, 0, 0); color: rgb(220, 220, 220);&quot;&gt;,&lt;/span&gt;&lt;/div&gt;&lt;div style=&quot;forced-color-adjust: none; border-color: rgb(0, 0, 0); color: rgb(248, 248, 242); font-family: IBMPlexMono, monospace, &amp;quot;Droid Sans Fallback&amp;quot;, &amp;quot;Droid Sans Mono&amp;quot;, &amp;quot;monospace&amp;quot;, monospace; font-size: 12px; font-style: normal; font-variant-ligatures: normal; font-variant-caps: normal; font-weight: 400; letter-spacing: normal; orphans: 2; text-align: left; text-indent: 0px; text-transform: none; widows: 2; word-spacing: 0px; -webkit-text-stroke-width: 0px; white-space: pre; background-color: rgb(27, 29, 30); text-decoration-thickness: initial; text-decoration-style: initial; text-decoration-color: initial;&quot;&gt;&lt;span style=&quot;forced-color-adjust: none; border-color: rgb(0, 0, 0); color: rgb(248, 248, 242);&quot;&gt;    &lt;/span&gt;&lt;span style=&quot;forced-color-adjust: none; border-color: rgb(0, 0, 0); color: rgb(156, 220, 254);&quot;&gt;&quot;email&quot;&lt;/span&gt;&lt;span style=&quot;forced-color-adjust: none; border-color: rgb(0, 0, 0); color: rgb(220, 220, 220);&quot;&gt;:&lt;/span&gt;&lt;span style=&quot;forced-color-adjust: none; border-color: rgb(0, 0, 0); color: rgb(248, 248, 242);&quot;&gt; &lt;/span&gt;&lt;span style=&quot;forced-color-adjust: none; border-color: rgb(0, 0, 0); color: rgb(206, 145, 120);&quot;&gt;&quot;jose@example.com&quot;&lt;/span&gt;&lt;span style=&quot;forced-color-adjust: none; border-color: rgb(0, 0, 0); color: rgb(220, 220, 220);&quot;&gt;,&lt;/span&gt;&lt;/div&gt;&lt;div style=&quot;forced-color-adjust: none; border-color: rgb(0, 0, 0); color: rgb(248, 248, 242); font-family: IBMPlexMono, monospace, &amp;quot;Droid Sans Fallback&amp;quot;, &amp;quot;Droid Sans Mono&amp;quot;, &amp;quot;monospace&amp;quot;, monospace; font-size: 12px; font-style: normal; font-variant-ligatures: normal; font-variant-caps: normal; font-weight: 400; letter-spacing: normal; orphans: 2; text-align: left; text-indent: 0px; text-transform: none; widows: 2; word-spacing: 0px; -webkit-text-stroke-width: 0px; white-space: pre; background-color: rgb(27, 29, 30); text-decoration-thickness: initial; text-decoration-style: initial; text-decoration-color: initial;&quot;&gt;&lt;span style=&quot;forced-color-adjust: none; border-color: rgb(0, 0, 0); color: rgb(248, 248, 242);&quot;&gt;    &lt;/span&gt;&lt;span style=&quot;forced-color-adjust: none; border-color: rgb(0, 0, 0); color: rgb(156, 220, 254);&quot;&gt;&quot;password&quot;&lt;/span&gt;&lt;span style=&quot;forced-color-adjust: none; border-color: rgb(0, 0, 0); color: rgb(220, 220, 220);&quot;&gt;:&lt;/span&gt;&lt;span style=&quot;forced-color-adjust: none; border-color: rgb(0, 0, 0); color: rgb(248, 248, 242);&quot;&gt; &lt;/span&gt;&lt;span style=&quot;forced-color-adjust: none; border-color: rgb(0, 0, 0); color: rgb(206, 145, 120);&quot;&gt;&quot;strong_password&quot;&lt;/span&gt;&lt;/div&gt;&lt;div style=&quot;forced-color-adjust: none; border-color: rgb(0, 0, 0); color: rgb(248, 248, 242); font-family: IBMPlexMono, monospace, &amp;quot;Droid Sans Fallback&amp;quot;, &amp;quot;Droid Sans Mono&amp;quot;, &amp;quot;monospace&amp;quot;, monospace; font-size: 12px; font-style: normal; font-variant-ligatures: normal; font-variant-caps: normal; font-weight: 400; letter-spacing: normal; orphans: 2; text-align: left; text-indent: 0px; text-transform: none; widows: 2; word-spacing: 0px; -webkit-text-stroke-width: 0px; white-space: pre; background-color: rgb(27, 29, 30); text-decoration-thickness: initial; text-decoration-style: initial; text-decoration-color: initial;&quot;&gt;&lt;span style=&quot;forced-color-adjust: none; border-color: rgb(0, 0, 0); color: rgb(220, 220, 220);&quot;&gt;}&lt;/span&gt;&lt;/div&gt;" id="OHBltOvMj3yplkKkjRe--98">
          <mxCell style="text;whiteSpace=wrap;html=1;labelBackgroundColor=none;" vertex="1" parent="OHBltOvMj3yplkKkjRe--93">
            <mxGeometry y="60" width="170" height="90" as="geometry" />
          </mxCell>
        </UserObject>
      </root>
    </mxGraphModel>
  </diagram>
</mxfile>
